<?xml version="1.0" standalone="no"?><!DOCTYPE svg PUBLIC "-//W3C//DTD SVG 1.1//EN" "http://www.w3.org/Graphics/SVG/1.1/DTD/svg11.dtd"><svg t="1652342392720" class="icon" viewBox="0 0 1024 1024" version="1.1" xmlns="http://www.w3.org/2000/svg" p-id="5665" xmlns:xlink="http://www.w3.org/1999/xlink" width="200" height="200"><defs><style type="text/css"></style></defs><path d="M907.47 822L731 540.84c-63.65 171.28-228.57 293.33-422 293.33a448.23 448.23 0 0 1-190-42l-18.64 30c-32.21 39.7-1 95.8 53.26 95.8h700.76C908.8 918 940 861.65 907.47 822z" fill="#C9F4EB" p-id="5666"></path><path d="M742 579H279a25 25 0 0 1 0-50h463a25 25 0 0 1 0 50z" fill="#10A38B" p-id="5667"></path><path d="M862.38 951.83H161.61c-36.54 0-68.48-19.38-83.33-50.57-13.45-28.23-9.84-59.75 9.6-84.65L327 431.67a27.07 27.07 0 0 1 1.83-2.56 35.48 35.48 0 0 0 8.24-22.47v-304a25 25 0 0 1 25-25h299.6a25 25 0 0 1 25 25v307.78A35.47 35.47 0 0 0 695 433a22.81 22.81 0 0 1 1.83 2.55l239 380.72c19.62 24.88 23.35 56.45 9.94 84.79-14.77 31.33-46.77 50.77-83.39 50.77zM368.71 459.28L129.59 844.22a24.33 24.33 0 0 1-1.82 2.57c-11 13.55-7.45 26.47-4.35 33 5.08 10.67 17.78 22.07 38.19 22.07h700.77c20.46 0 33.17-11.44 38.24-22.14 3.08-6.52 6.61-19.48-4.49-33a24.26 24.26 0 0 1-1.84-2.55l-239-380.72a86 86 0 0 1-18.61-53V127.68H387.06v279a86 86 0 0 1-18.35 52.6z" fill="#10A38B" p-id="5668"></path><path d="M803.13 123H220.87a25 25 0 0 1 0-50h582.26a25 25 0 0 1 0 50z" fill="#10A38B" p-id="5669"></path><path d="M329 700a25 25 0 0 1 0-50 25 25 0 0 1 0 50zM632 738a25 25 0 0 1 0-50 25 25 0 0 1 0 50zM372 848a25 25 0 0 1 0-50 25 25 0 0 1 0 50z" fill="#FFA143" p-id="5670"></path></svg>