<?xml version="1.0" standalone="no"?><!DOCTYPE svg PUBLIC "-//W3C//DTD SVG 1.1//EN" "http://www.w3.org/Graphics/SVG/1.1/DTD/svg11.dtd"><svg t="1652342417399" class="icon" viewBox="0 0 1024 1024" version="1.1" xmlns="http://www.w3.org/2000/svg" p-id="7234" xmlns:xlink="http://www.w3.org/1999/xlink" width="200" height="200"><defs><style type="text/css"></style></defs><path d="M421.5 629a487.21 487.21 0 0 1-269.1-80.54l-45.46 45.45a50 50 0 0 0 0 70.71l240 240a50 50 0 0 0 70.71 0l363.23-363.28A50 50 0 0 0 795.52 505l-1-48.53C704.75 562 571 629 421.5 629z" fill="#C9F4EB" p-id="7235"></path><path d="M523.63 661.71a24.93 24.93 0 0 1-17.63-7.32l-141.8-141.8a25 25 0 0 1 35.36-35.36L541.31 619a25 25 0 0 1-17.68 42.68z" fill="#FFA143" p-id="7236"></path><path d="M381.83 661.71A25 25 0 0 1 364.15 619L506 477.23a25 25 0 1 1 35.36 35.36l-141.8 141.8a24.93 24.93 0 0 1-17.73 7.32z" fill="#FFA143" p-id="7237"></path><path d="M374.27 938.47a124.61 124.61 0 0 1-88.39-36.55L116.62 732.66a125 125 0 0 1 0-176.78l327.63-327.63a75.27 75.27 0 0 1 55.51-21.93l235.58 7.79a75 75 0 0 1 72.5 73.45l4.67 231.91a75.36 75.36 0 0 1-22 54.55l-327.9 327.9a124.65 124.65 0 0 1-88.34 36.55z m-53-71.91a75.08 75.08 0 0 0 106.06 0l327.91-327.9a25.13 25.13 0 0 0 7.31-18.18l-4.67-231.91a25 25 0 0 0-24.17-24.49l-235.57-7.79a25.15 25.15 0 0 0-18.5 7.31L152 591.23a75 75 0 0 0 0 106.07z" fill="#10A38B" p-id="7238"></path><path d="M742.41 395.24c-34.24 0-64.36-11.63-86.55-33.82a25 25 0 1 1 35.36-35.35c16 16 40.59 22.28 69.23 17.68 31.63-5.08 63.63-22.47 90.13-49s43.88-58.5 49-90.12c4.6-28.65-1.68-53.24-17.68-69.24s-40.59-22.28-69.23-17.68c-31.63 5.08-63.64 22.47-90.13 49-17.89 17.89-31.93 38.79-40.6 60.44a25 25 0 1 1-46.42-18.58c11.16-27.88 29-54.58 51.67-77.22 33.87-33.87 75.62-56.24 117.54-63 44.91-7.22 84.87 4 112.53 31.69s38.9 67.61 31.69 112.52c-6.74 41.93-29.1 83.67-63 117.55s-75.62 56.24-117.55 63a163.13 163.13 0 0 1-25.99 2.13z" fill="#10A38B" p-id="7239"></path></svg>