<?xml version="1.0" standalone="no"?><!DOCTYPE svg PUBLIC "-//W3C//DTD SVG 1.1//EN" "http://www.w3.org/Graphics/SVG/1.1/DTD/svg11.dtd"><svg t="1652342444963" class="icon" viewBox="0 0 1024 1024" version="1.1" xmlns="http://www.w3.org/2000/svg" p-id="8800" xmlns:xlink="http://www.w3.org/1999/xlink" width="200" height="200"><defs><style type="text/css"></style></defs><path d="M912.55 852.47c-26.81-157.85-153.45-283.68-316-316.33C540.44 720.7 368.91 855 166 855a455.31 455.31 0 0 1-52.65-3c0 0.2-0.07 0.41-0.11 0.61-5.54 32.69 19.88 62.44 53 62.44h693.3c33.19-0.05 58.57-29.86 53.01-62.58z" fill="#C9F4EB" p-id="8801"></path><path d="M507.9 541a234 234 0 1 1 165.46-68.54A232.46 232.46 0 0 1 507.9 541z m0-418c-101.44 0-184 82.53-184 184s82.54 184 184 184 184-82.54 184-184-82.55-184-184-184z" fill="#10A38B" p-id="8802"></path><path d="M854.54 928.14H161.27a78.7 78.7 0 0 1-77.66-91.75c16.25-95.6 67.69-183.13 144.84-246.45a432.37 432.37 0 0 1 128-72.62 449 449 0 0 1 303 0 432.5 432.5 0 0 1 128 72.62C864.51 653.26 916 740.79 932.2 836.39a78.7 78.7 0 0 1-77.66 91.75zM507.9 541c-187.37 0-345.08 127.75-375 303.77a28 28 0 0 0 6.34 23.14 28.74 28.74 0 0 0 22 10.23h693.3a28.74 28.74 0 0 0 22-10.23 28 28 0 0 0 6.34-23.14C853 668.75 695.28 541 507.9 541z" fill="#10A38B" p-id="8803"></path><path d="M786.92 831.19a25 25 0 0 1-21.68-12.5c-36.53-63.28-75.07-101-101-121.56-27.95-22.15-47.58-29.55-47.78-29.62l0.17 0.06 16.68-47.14c3.86 1.37 95.4 35 175.2 173.25a25 25 0 0 1-21.62 37.51z" fill="#FFA143" p-id="8804"></path></svg>