<?xml version="1.0" standalone="no"?><!DOCTYPE svg PUBLIC "-//W3C//DTD SVG 1.1//EN" "http://www.w3.org/Graphics/SVG/1.1/DTD/svg11.dtd"><svg t="1652342473357" class="icon" viewBox="0 0 1024 1024" version="1.1" xmlns="http://www.w3.org/2000/svg" p-id="10661" xmlns:xlink="http://www.w3.org/1999/xlink" width="200" height="200"><defs><style type="text/css"></style></defs><path d="M857.2 480.05c-40.23-106.17-81.34-163-114.32-186.31A448.67 448.67 0 0 1 775 461c0 144.8-68.4 273.63-174.65 355.94a64 64 0 0 0 16.47 18.93c29 22 138.06 48.16 214.28 45.51 26.79-1 39.08-5.73 41.87-8.38h-0.28c27.64-26 48.58-221.25-15.49-392.95z" fill="#C9F4EB" p-id="10662"></path><path d="M825.36 901.55c-77.09 0-183.91-24.38-218.66-50.78-41.79-31.56-44.09-97.23-39.46-127.54 0-0.14 0-0.28 0.07-0.42l33.92-199.06v-0.19l27.35-153.35 7.81-44.77c5.12-29.16 15.27-49.22 31-61.33 15.36-11.81 32.13-13.4 46.5-13.4 19.11 0 49.51 9.32 85.79 53.73C830.12 341.62 859 396 885.57 466.19v0.12c39.16 104.93 44.2 208 43.72 260.09-0.22 28.9-3.29 122.6-30.79 155.86a24.53 24.53 0 0 1-3.3 3.85c-9.52 9.06-29.1 14.18-58.19 15.24-3.8 0.14-7.69 0.2-11.65 0.2zM616.63 731c-2.74 18.35-1.44 63.55 20.26 79.93C659.39 828 761.36 854 835.23 851.39c14.21-0.52 22.28-2.14 26.17-3.19 2.12-3.93 6.65-14.42 10.87-37.81 4.57-25.26 7-56.08 7.09-89.13 0.12-47.76-5-142.1-40.57-237.41C781.86 333.61 729.38 300.71 714 300.71c-8.69 0-13.18 0.86-16 3s-8.56 9.3-12.25 30.3l-7.81 44.79v0.09L668 434.25q-0.08 0.57-0.18 1.14L659.29 484a26.74 26.74 0 0 1-0.71 3l-8.08 45.28z m36.6-356.44z m-450.5 526.53q-7.26 0-14-0.3c-43.64-1.54-54.93-11.46-59.18-16.26C99.39 854 96.25 755.57 96 725.81c-0.42-52.09 4.8-155.12 44.53-260 25.55-69.78 53.94-124.1 84.38-161.45 36.22-44.42 66.7-53.75 85.9-53.75 14.59 0 31.59 1.62 47.1 13.59 15.74 12.15 25.92 32.26 31.11 61.48v0.18l7 41 9 53.35a25.14 25.14 0 0 1 1.28 4.71l9.21 54a25.08 25.08 0 0 1 0.35 5.16l7.19 42.41L457 721.89c2.33 13.47 3.39 36.14-0.64 59.43-5.37 31-18.54 55-38.09 69.59-24.74 18.35-77.4 31.43-98.89 36.2-40.64 9.03-82.27 13.98-116.65 13.98z m-35.86-49.79z m-2.87-3.59c3.62 1 11.67 2.6 26.49 3.12h0.23c32.53 1.43 75.47-3.14 117.81-12.54s70.54-20.57 79.9-27.52c20.78-15.47 22.83-60 19.3-80.34L373.85 535v-0.09l-27.08-159.7-7-40.93c-3.77-21.16-9.4-28.23-12.43-30.56s-7.59-3.17-16.54-3.17c-15.74 0-68.57 32.79-123.38 182.51 0 0.09-0.06 0.18-0.1 0.27C151.24 578.65 145.93 673 146 720.74c0 33 2.47 63.84 7 89.08 4 21.96 8.61 33.46 11 37.89z m-2.44-0.78z" fill="#10A38B" p-id="10663"></path><path d="M237.59 583.78a25 25 0 0 1-6.85-49c92.62-26.45 154.67-72.93 184.43-138.15 27.19-59.57 22.84-125.35 14.4-170-9.43-49.88-25.93-85.63-26.1-86a25 25 0 0 1 45.28-21.22c0.76 1.63 18.94 40.73 29.65 96.38 6.33 32.87 8.76 64.87 7.24 95.11-1.93 38.47-10.28 74.2-24.83 106.2C424.74 496.33 352 552.11 244.47 582.81a24.9 24.9 0 0 1-6.88 0.97zM782.86 583.78a24.9 24.9 0 0 1-6.88-1C668.5 552.11 595.71 496.33 559.65 417c-14.55-32-22.91-67.73-24.84-106.2-1.52-30.24 0.92-62.24 7.24-95.11 10.71-55.65 28.89-94.75 29.66-96.38A25 25 0 0 1 617 140.56c-0.34 0.72-16.72 36.35-26.09 86-8.44 44.7-12.8 110.48 14.39 170 29.7 65.24 91.8 111.72 184.42 138.17a25 25 0 0 1-6.86 49z" fill="#10A38B" p-id="10664"></path><path d="M259.47 715.8a25 25 0 0 1-12.36-46.75l252.55-143.29a25 25 0 0 1 24.2-0.27l255.59 137.72a25 25 0 1 1-23.72 44L512.31 576.07 271.79 712.54a24.92 24.92 0 0 1-12.32 3.26z" fill="#FFA143" p-id="10665"></path></svg>