<?xml version="1.0" standalone="no"?><!DOCTYPE svg PUBLIC "-//W3C//DTD SVG 1.1//EN" "http://www.w3.org/Graphics/SVG/1.1/DTD/svg11.dtd"><svg t="1652342429719" class="icon" viewBox="0 0 1024 1024" version="1.1" xmlns="http://www.w3.org/2000/svg" p-id="7945" xmlns:xlink="http://www.w3.org/1999/xlink" width="200" height="200"><defs><style type="text/css"></style></defs><path d="M835 511.71v-0.17-0.54a114.33 114.33 0 0 1 83-110.21 415.14 415.14 0 0 0-99.94-176 453.73 453.73 0 0 1 4.1 60.94c0 248.53-201.47 450-450 450a447.9 447.9 0 0 1-241.26-70.07 416.16 416.16 0 0 0 90.83 138.53 114.34 114.34 0 0 1 190.6 109.92 418.69 418.69 0 0 0 210.31-0.11 114.33 114.33 0 0 1 190.44-110.17 415.32 415.32 0 0 0 105.2-182.08A114.35 114.35 0 0 1 835 511.71z" fill="#C9F4EB" p-id="7946"></path><path d="M512.06 952.76a447.94 447.94 0 0 1-52.5-3.1 84.85 84.85 0 0 1-74.6-74 89.31 89.31 0 0 0-123.75-71.42 85.13 85.13 0 0 1-101.52-27.48 440.63 440.63 0 0 1-52.78-91 85.09 85.09 0 0 1 26.72-101.92 89.3 89.3 0 0 0-0.16-142.95 85.1 85.1 0 0 1-26.94-101.87 441.07 441.07 0 0 1 53-91.63 84.37 84.37 0 0 1 100.77-27.26 89.31 89.31 0 0 0 123.83-71.53 84.9 84.9 0 0 1 74.51-74.15 445.88 445.88 0 0 1 105.47-0.16 84.83 84.83 0 0 1 74.65 73.87 89.27 89.27 0 0 0 124.11 71.16 84.42 84.42 0 0 1 100.9 27A441 441 0 0 1 917 337.74a85.08 85.08 0 0 1-26.6 101.94 88.61 88.61 0 0 0-35.6 71.55v0.77a88.63 88.63 0 0 0 35.77 71.48 85.09 85.09 0 0 1 26.83 101.88 440.94 440.94 0 0 1-52.66 91A85.13 85.13 0 0 1 763.25 804a89.31 89.31 0 0 0-123.66 71.56A84.87 84.87 0 0 1 565 949.6a447.39 447.39 0 0 1-52.94 3.16zM296.51 747.08q3.53 0 7.05 0.18a139.26 139.26 0 0 1 131 122.39 35 35 0 0 0 30.9 30.35 396.2 396.2 0 0 0 93.62 0A35 35 0 0 0 590 869.55 139.27 139.27 0 0 1 782.8 758a35.25 35.25 0 0 0 42-11.6 391.16 391.16 0 0 0 46.68-80.68 35.21 35.21 0 0 0-10.88-42.22 139.12 139.12 0 0 1-55.75-111.17v-1-0.78a139.13 139.13 0 0 1 55.5-110.76 35.19 35.19 0 0 0 10.78-42.23 390.9 390.9 0 0 0-47.2-81 34.52 34.52 0 0 0-41.2-11.26 139.4 139.4 0 0 1-172.06-51.88 140.49 140.49 0 0 1-21.5-59.09A34.93 34.93 0 0 0 558.26 124a395.55 395.55 0 0 0-93.62 0.14 35 35 0 0 0-30.86 30.44 139.36 139.36 0 0 1-138.23 122.83 139 139 0 0 1-54.93-11.26 34.49 34.49 0 0 0-41.14 11.33 390.88 390.88 0 0 0-47 81.22 35.2 35.2 0 0 0 10.92 42.21 139.27 139.27 0 0 1 0.24 222.94 35.2 35.2 0 0 0-10.82 42.23 390.32 390.32 0 0 0 46.78 80.64 35.24 35.24 0 0 0 42 11.56 140.59 140.59 0 0 1 54.91-11.2z m558.25-236.89z" fill="#10A38B" p-id="7947"></path><path d="M512 708.72c-108.47 0-196.72-88.25-196.72-196.72S403.53 315.28 512 315.28 708.72 403.53 708.72 512 620.47 708.72 512 708.72z m0-343.44c-80.9 0-146.72 65.82-146.72 146.72S431.1 658.72 512 658.72 658.72 592.9 658.72 512 592.9 365.28 512 365.28z" fill="#FFA143" p-id="7948"></path></svg>