<?xml version="1.0" standalone="no"?><!DOCTYPE svg PUBLIC "-//W3C//DTD SVG 1.1//EN" "http://www.w3.org/Graphics/SVG/1.1/DTD/svg11.dtd"><svg t="1652342371517" class="icon" viewBox="0 0 1024 1024" version="1.1" xmlns="http://www.w3.org/2000/svg" p-id="4518" xmlns:xlink="http://www.w3.org/1999/xlink" width="200" height="200"><defs><style type="text/css"></style></defs><path d="M647.69 415.05c-36.61 147.06-145.55 265.52-286.86 315.4a212.36 212.36 0 0 0 144 56C622.52 786.41 718 691 718 573.23a212.63 212.63 0 0 0-70.31-158.18z" fill="#C9F4EB" p-id="4519"></path><path d="M512 810a238.18 238.18 0 1 1 168.42-69.76A236.66 236.66 0 0 1 512 810z m0-426.36c-103.76 0-188.18 84.42-188.18 188.18S408.24 760 512 760s188.18-84.42 188.18-188.18S615.76 383.64 512 383.64z" fill="#10A38B" p-id="4520"></path><path d="M512 626a55 55 0 1 1 55-55 55.06 55.06 0 0 1-55 55z m0-60a5 5 0 1 0 5 5 5 5 0 0 0-5-5z" fill="#FFA143" p-id="4521"></path><path d="M528 295.8a25 25 0 0 1-25-25v-95.52a25 25 0 1 1 50 0v95.52a25 25 0 0 1-25 25zM646.47 321.8a25 25 0 0 1-20.24-39.64l62-85.8a25 25 0 1 1 40.52 29.28l-62 85.8a24.94 24.94 0 0 1-20.28 10.36zM409.53 321.8a24.94 24.94 0 0 1-20.28-10.36l-62-85.8a25 25 0 1 1 40.52-29.28l62 85.8a25 25 0 0 1-20.24 39.64z" fill="#10A38B" p-id="4522"></path><path d="M504.28 872.58a363.72 363.72 0 0 1-262.09-111.52L76 588.33a25 25 0 0 1 0-34.66l166.2-172.73a363.75 363.75 0 0 1 513.05-11.07l192 183a25 25 0 0 1 0 36.2l-192 183a363.82 363.82 0 0 1-251 100.45zM128.69 571l149.53 155.39a315.28 315.28 0 0 0 226.06 96.19 312.41 312.41 0 0 0 216.46-86.64L893.77 571l-173-164.94a313.73 313.73 0 0 0-442.52 9.55z" fill="#10A38B" p-id="4523"></path></svg>