<?xml version="1.0" standalone="no"?><!DOCTYPE svg PUBLIC "-//W3C//DTD SVG 1.1//EN" "http://www.w3.org/Graphics/SVG/1.1/DTD/svg11.dtd"><svg t="1652342427497" class="icon" viewBox="0 0 1024 1024" version="1.1" xmlns="http://www.w3.org/2000/svg" p-id="7802" xmlns:xlink="http://www.w3.org/1999/xlink" width="200" height="200"><defs><style type="text/css"></style></defs><path d="M906.33 226.5c-42.88-14.3-128.93-11.32-190.33-6.72C672.47 422.79 492 575 276 575a448.29 448.29 0 0 1-183.09-38.82c14.48 161.33 69.48 342.26 69.48 342.26C175.48 702.39 338.56 605 537.22 588.4S977.3 250.15 906.33 226.5z" fill="#C9F4EB" p-id="7803"></path><path d="M170.37 911.44a25 25 0 0 1-23.9-17.73c-1.51-5-37.11-122.77-58.51-254.37-12.7-78.11-17.64-144.72-14.68-198 1.82-32.81 6.72-61.16 14.55-84.28 9.41-27.74 23.39-49 41.56-63.36 5.36-4.21 12.35-9.82 18.93-15.8 17.06-15.51 53.44-37.25 129.79-52.78 91.57-18.61 217.77-23.91 375.13-15.73 10.17-1.22 52.83-6.12 103-8.76 77.7-4.09 133.53-0.69 165.94 10.12 8 2.68 33.9 14.46 29.21 53.63-3.71 31-25.94 69.49-43.93 96.31-25 37.32-57.56 76-94 111.82-40.39 39.69-83.8 73.81-125.54 98.67-49.68 29.6-97 46.45-140.65 50.1-161.57 13.51-338.88 90.74-352 267a25 25 0 0 1-22.17 23 26 26 0 0 1-2.73 0.16zM518.1 255.68c-92.47 0-169.51 6.17-230 18.47-71.21 14.48-97.94 33.34-106.13 40.78-7.73 7-15.62 13.36-21.62 18.09-21.15 16.65-34 55-37.11 110.93-2.77 49.57 2 112.45 14 186.9 9.26 57 21.49 112.2 32.25 156 21.49-48.77 56.57-91.25 104.11-125.5 69.18-49.82 162.39-80.9 269.53-89.86C649.43 562.6 781.41 451.34 856.85 346c36-50.29 44.55-78.93 45.18-89.15C845.19 241 707 253.09 657.2 259.3a24.11 24.11 0 0 1-4.41 0.16q-71.97-3.78-134.69-3.78z" fill="#10A38B" p-id="7804"></path><path d="M572 355.28h-0.23A25 25 0 0 1 547 330.05c0.25-27-15.73-64.67-46.22-108.86A578.7 578.7 0 0 0 452 159.94a25 25 0 0 1 36.37-34.31A622.61 622.61 0 0 1 542 192.79c36.89 53.47 55.41 99.81 55.06 137.73A25 25 0 0 1 572 355.28z" fill="#FFA143" p-id="7805"></path><path d="M170.36 911.44a25 25 0 0 1-4.36-49.61c36.24-6.5 137.73-34.5 171.58-85.26 29-43.56 62.49-58.82 85.44-64a105.16 105.16 0 0 1 41-1.17c83.15-12.18 151.65-52.08 203.62-118.63 40.19-51.46 55-100.47 55.16-101a25 25 0 0 1 48 14.07c-0.67 2.31-17 57.2-62.44 116-26.75 34.64-58.17 63.62-93.38 86.15-44.07 28.2-94.05 46.21-148.55 53.53a21.29 21.29 0 0 1-10.37-0.78c-1.62-0.38-11.25-2.34-24.5 1.17-19.47 5.15-37.09 19.38-52.37 42.3-22.62 33.93-64.31 62.27-123.9 84.21a522 522 0 0 1-80.52 22.54 24.58 24.58 0 0 1-4.41 0.48z" fill="#10A38B" p-id="7806"></path><path d="M558 798.8a25.4 25.4 0 0 1-4.57-0.42 25 25 0 0 1-20-29.13c57.51-310.84 39.1-357.46 25.66-391.51-6.28-15.91-12.78-32.36-12.78-63.31 0-97.92 30.2-181.9 31.49-185.43a25 25 0 0 1 47 17.1c-0.28 0.79-28.47 79.54-28.47 168.33 0 21.44 3.9 31.3 9.28 44.95 8 20.33 18 45.63 17.34 107.29-0.75 67.05-13.94 169-40.33 311.67A25 25 0 0 1 558 798.8z" fill="#FFA143" p-id="7807"></path></svg>