<?xml version="1.0" standalone="no"?><!DOCTYPE svg PUBLIC "-//W3C//DTD SVG 1.1//EN" "http://www.w3.org/Graphics/SVG/1.1/DTD/svg11.dtd"><svg t="1652342442942" class="icon" viewBox="0 0 1024 1024" version="1.1" xmlns="http://www.w3.org/2000/svg" p-id="8657" xmlns:xlink="http://www.w3.org/1999/xlink" width="200" height="200"><defs><style type="text/css"></style></defs><path d="M765 323.83L509.22 66.37c-8.68 0.83-17.19 1.84-25.54 3C581.22 151.89 643.15 275.21 643.15 413c0 234.28-179 426.74-407.75 448C550.56 1072 789 873 789 873l2.15-324.6C834.66 389.51 765 323.83 765 323.83z" fill="#C9F4EB" p-id="8658"></path><path d="M536.49 981a478 478 0 0 1-80.49-6.87c-77.79-13.27-155.41-45.92-230.72-97a25 25 0 0 1-10.67-24.52c1-6.7 26.09-165.31 80.35-264.62a21.39 21.39 0 0 0-4.87-26.24L86 384.64a25 25 0 0 1-7.58-26c0.88-3 22.31-73.36 87-147.92A481.51 481.51 0 0 1 299.18 103C362.49 68.5 435 47.12 514.69 39.49a25 25 0 0 1 20.12 7.26l255.66 257.37c7.27 7.18 77.26 81.66 33.51 245.7l-2.13 321.37a25 25 0 0 1-9 19c-2.64 2.2-65.86 54.23-170.18 78.55A467.22 467.22 0 0 1 536.49 981zM266.76 844.59c120.36 77.74 242.18 103.31 362.31 76 72.3-16.43 123.23-48.32 142.87-62.14l2.06-312.2a24.51 24.51 0 0 1 0.89-6.43c20.25-74 13.73-124.6 4.69-154-9.15-29.8-22.65-44.44-24-45.87l-0.46-0.46-247.31-249C381.91 104.93 280 155.78 204.66 241.76c-41.57 47.45-63.57 93.6-72.84 116.41L322.89 524a71.32 71.32 0 0 1 16 88c-40.73 74.45-64.51 190.73-72.13 232.59z" fill="#10A38B" p-id="8659"></path><path d="M529.11 535.19a25.05 25.05 0 0 1-24.27-19l-30-121.25a25 25 0 1 1 48.53-12l17.1 69.06 28.9-39.78-278.85-241.68a25 25 0 0 1 32.75-37.78l296.18 256.71a25 25 0 0 1 3.85 33.58l-74 101.83a25 25 0 0 1-20.19 10.31zM595.27 954.66A25 25 0 0 1 571 923.59l42.2-168.81-0.27 0.27a25 25 0 0 1-35.36-35.36l64.1-64.09a25 25 0 0 1 41.93 23.74l-64.1 256.38a25 25 0 0 1-24.23 18.94z" fill="#10A38B" p-id="8660"></path><path d="M595.23 634.18a25 25 0 0 1-21-38.57l75.18-116.29A40.73 40.73 0 0 1 720 483l25.78 50.78a25 25 0 1 1-44.58 22.63L682.67 520l-66.43 102.75a25 25 0 0 1-21.01 11.43z" fill="#FFA143" p-id="8661"></path><path d="M499.12 954.66a25 25 0 0 1-24.24-31.19l32.73-128.19a25 25 0 1 1 48.45 12.37l-32.73 128.19a25 25 0 0 1-24.21 18.82z" fill="#10A38B" p-id="8662"></path></svg>