<?xml version="1.0" standalone="no"?><!DOCTYPE svg PUBLIC "-//W3C//DTD SVG 1.1//EN" "http://www.w3.org/Graphics/SVG/1.1/DTD/svg11.dtd"><svg t="1652342367401" class="icon" viewBox="0 0 1024 1024" version="1.1" xmlns="http://www.w3.org/2000/svg" p-id="4376" xmlns:xlink="http://www.w3.org/1999/xlink" width="200" height="200"><defs><style type="text/css"></style></defs><path d="M500.08 132c-21.73 193.58-166.26 350-353.87 389.56A202 202 0 0 0 328 635.25c111.58 0 202-90.46 202-202V132z" fill="#C9F4EB" p-id="4377"></path><path d="M336 660a227 227 0 0 1-227-227V131.75a25 25 0 0 1 25-25h85.74a25 25 0 0 1 0 50H159V433c0 97.62 79.42 177 177 177s177.05-79.42 177.05-177V156.75h-71.74a25 25 0 1 1 0-50h96.78a25 25 0 0 1 25 25V433A227 227 0 0 1 336 660z" fill="#10A38B" p-id="4378"></path><path d="M573.5 962c-68.36 0-132.67-25.8-181.08-72.64C343.78 842.3 317 779.67 317 713v-78a25 25 0 0 1 50 0v78c0 109.73 92.64 199 206.5 199S780 822.73 780 713V496.13a25 25 0 0 1 50 0V713c0 66.67-26.78 129.3-75.42 176.36C706.17 936.2 641.86 962 573.5 962z" fill="#10A38B" p-id="4379"></path><path d="M805.5 514A119.5 119.5 0 1 1 925 394.5 119.64 119.64 0 0 1 805.5 514z m0-189a69.5 69.5 0 1 0 69.5 69.5 69.58 69.58 0 0 0-69.5-69.5z" fill="#FFA143" p-id="4380"></path></svg>