<?xml version="1.0" standalone="no"?><!DOCTYPE svg PUBLIC "-//W3C//DTD SVG 1.1//EN" "http://www.w3.org/Graphics/SVG/1.1/DTD/svg11.dtd"><svg t="1652342467992" class="icon" viewBox="0 0 1024 1024" version="1.1" xmlns="http://www.w3.org/2000/svg" p-id="10377" xmlns:xlink="http://www.w3.org/1999/xlink" width="200" height="200"><defs><style type="text/css"></style></defs><path d="M772.69 507.61c-33.51-64.8-45.58-126.22-46.5-179.79C679.68 526.8 501.15 675 288 675a450.62 450.62 0 0 1-117.54-15.51c81.73 70.94 338.23 244 671.22-16.58 31.16-24.39-39.63-78.49-68.99-135.3z" fill="#C9F4EB" p-id="10378"></path><path d="M146.81 924.49a25 25 0 0 1-24.24-18.94C103 827.23 93.84 770.76 105 713.91c10.36-52.63 36.86-103.48 80.75-187.73 6.78-13 13.8-26.48 21.33-41 40.45-78.25 53-160.27 37.32-243.79C232.6 178.36 208.26 138 208 137.6a25 25 0 0 1 42.57-26.23c1.17 1.89 28.75 47.09 42.56 118.46a419.56 419.56 0 0 1 5.21 125.91c-5.77 52.14-21.52 103.4-46.83 152.35-7.56 14.64-14.6 28.14-21.4 41.19-85 163.1-98 188.17-59 344.14a25 25 0 0 1-24.27 31.07zM877.19 924.49a25 25 0 0 1-24.27-31.07c39-156 25.93-181-59-344.14-6.8-13-13.84-26.55-21.4-41.19-25.31-48.95-41.06-100.21-46.83-152.35a419.56 419.56 0 0 1 5.21-125.91c13.81-71.37 41.39-116.57 42.56-118.46A25 25 0 0 1 816 137.61c-0.46 0.76-24.64 41-36.41 103.73-15.69 83.52-3.13 165.54 37.32 243.79 7.53 14.57 14.55 28 21.33 41 43.89 84.24 70.39 135.1 80.75 187.73 11.19 56.85 2 113.32-17.54 191.64a25 25 0 0 1-24.26 18.99z" fill="#10A38B" p-id="10379"></path><path d="M533.44 804c-51 0-103.17-6.91-156.11-20.69-140.68-36.61-236.92-108.55-240.95-111.6a25 25 0 0 1 30.14-39.89c0.91 0.68 93.54 69.67 225 103.52 173.55 44.69 330 10.12 465-102.75a25 25 0 0 1 32.07 38.36C807 739.15 716.43 781.64 619.42 797.2a542.23 542.23 0 0 1-85.98 6.8z" fill="#10A38B" p-id="10380"></path><path d="M525.08 657.48a47.25 47.25 0 1 1 47.25-47.25 47.3 47.3 0 0 1-47.25 47.25z m0-50a2.75 2.75 0 1 0 2.75 2.75 2.75 2.75 0 0 0-2.75-2.75z" fill="#10A38B" p-id="10381"></path><path d="M674.31 490.23a25 25 0 0 1-19.85-9.77c-67.52-87.95-52.29-197-42.6-239.77a25 25 0 0 1 48.77 11c-8.13 35.95-21.14 127.16 33.49 198.31a25 25 0 0 1-19.81 40.22z" fill="#FFA143" p-id="10382"></path></svg>