<?xml version="1.0" standalone="no"?><!DOCTYPE svg PUBLIC "-//W3C//DTD SVG 1.1//EN" "http://www.w3.org/Graphics/SVG/1.1/DTD/svg11.dtd"><svg t="1652342409302" class="icon" viewBox="0 0 1024 1024" version="1.1" xmlns="http://www.w3.org/2000/svg" p-id="6666" xmlns:xlink="http://www.w3.org/1999/xlink" width="200" height="200"><defs><style type="text/css"></style></defs><path d="M867.9 194.11c0.06 3 0.1 5.92 0.1 8.89 0 248.53-201.47 450-450 450a448 448 0 0 1-269.52-89.61c-63.14 94.33-53.15 224 30 307.14C273 965 427.62 965 522.12 870.53l339.41-339.41c92.33-92.32 94.47-242.03 6.37-337.01z" fill="#C9F4EB" p-id="6667"></path><path d="M687.83 711.83a24.89 24.89 0 0 1-17.68-7.33L328.62 363A25 25 0 0 1 364 327.62l341.5 341.53a25 25 0 0 1-17.67 42.68z" fill="#10A38B" p-id="6668"></path><path d="M346.29 952.41c-71.77 0-139.07-27.77-189.5-78.2-50.43-50.43-78.2-117.73-78.2-189.5s27.77-139.08 78.2-189.51L496.2 155.79c50.43-50.43 117.73-78.2 189.51-78.2s139.07 27.77 189.5 78.2 78.2 117.73 78.2 189.5-27.77 139.08-78.2 189.51L535.8 874.21c-50.43 50.43-117.73 78.2-189.51 78.2zM192.15 838.85c85 85 223.3 85 308.29 0l339.42-339.41c85-85 85-223.3 0-308.29s-223.31-85-308.3 0L192.14 530.56c-85 85-85 223.3 0 308.29l-17.67 17.68z" fill="#10A38B" p-id="6669"></path><path d="M796.15 477.23a25 25 0 0 1-20.49-39.29c25.28-36.31 32.17-77.77 20.47-123.23-9.2-35.74-26.87-60.76-27-61a25 25 0 1 1 40.56-29.24c0.91 1.27 22.61 31.58 34.39 75.85 16 60.06 6.54 117.53-27.35 166.19a25 25 0 0 1-20.58 10.72z" fill="#FFA143" p-id="6670"></path></svg>