<?xml version="1.0" standalone="no"?><!DOCTYPE svg PUBLIC "-//W3C//DTD SVG 1.1//EN" "http://www.w3.org/Graphics/SVG/1.1/DTD/svg11.dtd"><svg t="1652342458038" class="icon" viewBox="0 0 1024 1024" version="1.1" xmlns="http://www.w3.org/2000/svg" p-id="9660" xmlns:xlink="http://www.w3.org/1999/xlink" width="200" height="200"><defs><style type="text/css"></style></defs><path d="M692.36 559.61a75.86 75.86 0 0 0-69 44.4 450.16 450.16 0 0 1-67.88 106h200.61a12 12 0 0 0 12-12v-62.66a76 76 0 0 0-75.73-75.74zM355.78 844.2a81.24 81.24 0 0 0 81 81h175.11a81.24 81.24 0 0 0 81-81V710.83H554.83A450.48 450.48 0 0 1 355.78 844.2z" fill="#C9F4EB" p-id="9661"></path><path d="M773.09 735H309.58a37 37 0 0 1-37-37v-62.65a100.85 100.85 0 0 1 100.73-100.74h336.05a100.85 100.85 0 0 1 100.73 100.74V698a37 37 0 0 1-37 37z m-450.51-50h437.51v-49.65a50.79 50.79 0 0 0-50.73-50.74h-336a50.79 50.79 0 0 0-50.73 50.74z" fill="#10A38B" p-id="9662"></path><path d="M628.89 950.2H453.78a106.12 106.12 0 0 1-106-106V710.83a25 25 0 0 1 25-25h337.11a25 25 0 0 1 25 25V844.2a106.12 106.12 0 0 1-106 106zM397.78 735.83V844.2a56.06 56.06 0 0 0 56 56h175.11a56.06 56.06 0 0 0 56-56V735.83z" fill="#10A38B" p-id="9663"></path><path d="M257.3 837.6a25 25 0 0 1-17.56-7.2 425.48 425.48 0 1 1 604.2-6.7 25 25 0 1 1-35.89-34.81A373.54 373.54 0 0 0 914 527.47C914 320.43 745.56 152 538.52 152S163 320.43 163 527.47c0 101.27 39.71 196.21 111.81 267.33a25 25 0 0 1-17.55 42.8z" fill="#10A38B" p-id="9664"></path><path d="M721.33 382.91A25 25 0 0 1 703 375c-41.44-44.41-101-68.88-167.6-68.88a227.68 227.68 0 0 0-162.05 67.13 25 25 0 0 1-35.35-35.4 277.32 277.32 0 0 1 197.4-81.77c80.66 0 153.16 30.11 204.16 84.78a25 25 0 0 1-18.27 42.05z" fill="#FFA143" p-id="9665"></path></svg>