<?xml version="1.0" standalone="no"?><!DOCTYPE svg PUBLIC "-//W3C//DTD SVG 1.1//EN" "http://www.w3.org/Graphics/SVG/1.1/DTD/svg11.dtd"><svg t="1652342422282" class="icon" viewBox="0 0 1024 1024" version="1.1" xmlns="http://www.w3.org/2000/svg" p-id="7518" xmlns:xlink="http://www.w3.org/1999/xlink" width="200" height="200"><defs><style type="text/css"></style></defs><path d="M814.72 130.4a527.93 527.93 0 0 1 9.46 99.6c0 302.65-256.71 548-573.38 548a605.46 605.46 0 0 1-62.94-3.28V896c0 33 28.25 60 62.78 60H754a100 100 0 0 0 100-100V186c0-25.07-16.31-46.66-39.28-55.6z" fill="#C9F4EB" p-id="7519"></path><path d="M677 285H344a25 25 0 0 1 0-50h333a25 25 0 0 1 0 50zM565 426H344a25 25 0 0 1 0-50h221a25 25 0 0 1 0 50z" fill="#10A38B" p-id="7520"></path><path d="M743.76 964H277.62a125.14 125.14 0 0 1-125-125V209a125.14 125.14 0 0 1 125-125h466.14a125.14 125.14 0 0 1 125 125v630a125.14 125.14 0 0 1-125 125zM277.62 134a75.09 75.09 0 0 0-75 75v630a75.08 75.08 0 0 0 75 75h466.14a75.08 75.08 0 0 0 75-75V209a75.09 75.09 0 0 0-75-75z" fill="#10A38B" p-id="7521"></path><path d="M593 812a25 25 0 0 1-11.63-2.87L512 772.65l-69.38 36.48a25 25 0 0 1-36.28-26.36l13.25-77.25-56.13-54.72a25 25 0 0 1 13.86-42.64l77.57-11.27 34.69-70.29a25 25 0 0 1 44.84 0l34.69 70.29 77.57 11.27a25 25 0 0 1 13.86 42.64l-56.13 54.72 13.25 77.25A25 25 0 0 1 593 812z m-81-92.59a24.89 24.89 0 0 1 11.63 2.87l36.18 19L552.9 701a25 25 0 0 1 7.19-22.12l29.27-28.53-40.45-5.88a25 25 0 0 1-18.82-13.68L512 594.15l-18.09 36.65a25 25 0 0 1-18.82 13.68l-40.45 5.88 29.27 28.53A25 25 0 0 1 471.1 701l-6.91 40.29 36.18-19a24.89 24.89 0 0 1 11.63-2.88z" fill="#FFA143" p-id="7522"></path></svg>