<?xml version="1.0" standalone="no"?><!DOCTYPE svg PUBLIC "-//W3C//DTD SVG 1.1//EN" "http://www.w3.org/Graphics/SVG/1.1/DTD/svg11.dtd"><svg t="1652342475463" class="icon" viewBox="0 0 1024 1024" version="1.1" xmlns="http://www.w3.org/2000/svg" p-id="10803" xmlns:xlink="http://www.w3.org/1999/xlink" width="200" height="200"><defs><style type="text/css"></style></defs><path d="M286 947.82a213.66 213.66 0 0 1-151.12-364.74l443.2-443.2A213.66 213.66 0 1 1 880.24 442L437 885.24a212.29 212.29 0 0 1-151 62.58z m443.2-820.44a163.11 163.11 0 0 0-115.72 47.86l-443.2 443.2c-63.81 63.81-63.81 167.63 0 231.44s167.63 63.81 231.44 0l443.2-443.2c63.81-63.81 63.81-167.63 0-231.44a163.11 163.11 0 0 0-115.76-47.86zM737.16 947.82a212.29 212.29 0 0 1-151.08-62.58l-28.62-28.62a25 25 0 0 1 35.36-35.35l28.62 28.61a163.83 163.83 0 0 0 231.44 0c63.81-63.81 63.81-167.63 0-231.44l-25.78-25.78a25 25 0 0 1 35.36-35.36l25.78 25.78c83.3 83.31 83.3 218.85 0 302.16a212.29 212.29 0 0 1-151.08 62.58zM185 473.81a24.92 24.92 0 0 1-17.67-7.32L142.88 442c-83.3-83.31-83.3-218.85 0-302.16s218.85-83.3 302.16 0l27.28 27.28a25 25 0 0 1-35.32 35.4l-27.28-27.28c-63.81-63.81-167.63-63.81-231.44 0s-63.81 167.63 0 231.44l24.45 24.46A25 25 0 0 1 185 473.81z" fill="#10A38B" p-id="10804"></path><path d="M505.09 782a84.41 84.41 0 0 1-60.1-24.9L263 575.13a85.1 85.1 0 0 1 0-120.21L449.92 268a85 85 0 0 1 120.21 0l182 182a85.1 85.1 0 0 1 0 120.21L565.2 757.08A84.44 84.44 0 0 1 505.09 782zM510 293.14a34.78 34.78 0 0 0-24.75 10.26L298.4 490.28a35 35 0 0 0 0 49.5l181.94 182a35 35 0 0 0 49.5 0l186.89-186.94a35.05 35.05 0 0 0 0-49.5l-182-181.94A34.78 34.78 0 0 0 510 293.14z" fill="#FFA143" p-id="10805"></path><path d="M577.74 467.51h-1.23l-1.23-0.09c-0.81-0.08-1.63-0.21-2.43-0.37s-1.59-0.36-2.37-0.6-1.55-0.51-2.3-0.82-1.5-0.67-2.22-1.05-1.42-0.8-2.1-1.25a23.32 23.32 0 0 1-2-1.46c-0.32-0.26-0.64-0.53-0.94-0.8s-0.6-0.56-0.89-0.85-0.58-0.59-0.85-0.89-0.54-0.62-0.8-0.94a23.32 23.32 0 0 1-1.46-2c-0.45-0.68-0.87-1.39-1.25-2.1s-0.74-1.47-1.05-2.22a23.28 23.28 0 0 1-0.82-2.3c-0.24-0.78-0.44-1.58-0.6-2.37s-0.29-1.62-0.37-2.43c0-0.41-0.07-0.82-0.09-1.22s0-0.83 0-1.24v-1.23c0-0.41 0.05-0.82 0.09-1.23 0.08-0.8 0.21-1.62 0.37-2.42a25.64 25.64 0 0 1 1.42-4.68c0.31-0.75 0.67-1.49 1.05-2.21s0.8-1.43 1.25-2.11a23.32 23.32 0 0 1 1.46-2c0.26-0.32 0.53-0.63 0.8-0.93s0.56-0.61 0.85-0.9 0.59-0.57 0.89-0.85 0.62-0.54 0.94-0.8c0.63-0.51 1.29-1 2-1.45s1.38-0.88 2.1-1.26 1.46-0.73 2.22-1 1.52-0.59 2.3-0.83 1.58-0.44 2.37-0.6 1.62-0.28 2.43-0.36c0.41 0 0.82-0.08 1.23-0.1q1.23-0.06 2.46 0c0.41 0 0.82 0.06 1.23 0.1 0.81 0.08 1.62 0.2 2.42 0.36a24.37 24.37 0 0 1 2.38 0.6c0.77 0.24 1.55 0.52 2.3 0.83s1.49 0.66 2.21 1a23.33 23.33 0 0 1 2.1 1.26c0.68 0.45 1.35 0.94 2 1.45 0.32 0.26 0.63 0.53 0.93 0.8s0.61 0.56 0.9 0.85 0.57 0.59 0.84 0.9 0.55 0.61 0.81 0.93c0.51 0.63 1 1.29 1.45 2s0.87 1.39 1.26 2.11 0.73 1.46 1 2.21 0.59 1.53 0.83 2.3 0.44 1.58 0.6 2.38 0.28 1.62 0.36 2.42c0 0.41 0.07 0.82 0.1 1.23s0 0.82 0 1.23v1.24c0 0.41-0.06 0.81-0.1 1.22-0.08 0.81-0.2 1.63-0.36 2.43s-0.37 1.59-0.6 2.37-0.52 1.55-0.83 2.3-0.66 1.5-1 2.22-0.81 1.42-1.26 2.1-0.94 1.34-1.45 2c-0.26 0.32-0.53 0.63-0.81 0.94s-0.56 0.6-0.84 0.89-0.59 0.58-0.9 0.85-0.61 0.54-0.93 0.8a24.91 24.91 0 0 1-4.08 2.71c-0.72 0.38-1.46 0.73-2.21 1.05s-1.53 0.58-2.3 0.82a24.37 24.37 0 0 1-2.38 0.6c-0.8 0.16-1.61 0.29-2.42 0.37l-1.23 0.09zM507.9 537.35h-1.23l-1.23-0.09c-0.81-0.09-1.62-0.21-2.43-0.37s-1.59-0.36-2.37-0.6a23.34 23.34 0 0 1-2.3-0.83c-0.75-0.31-1.5-0.66-2.22-1s-1.42-0.81-2.1-1.26-1.34-0.94-2-1.45c-0.32-0.26-0.63-0.53-0.93-0.8s-0.61-0.57-0.9-0.85a25.2 25.2 0 0 1-7.32-17.68v-1.23q0-0.61 0.09-1.23c0.08-0.81 0.21-1.62 0.37-2.42a24.66 24.66 0 0 1 1.43-4.68c0.31-0.75 0.66-1.5 1-2.21s0.81-1.43 1.25-2.11 0.95-1.34 1.46-2c0.26-0.32 0.53-0.63 0.8-0.93s0.56-0.61 0.85-0.9 0.59-0.57 0.9-0.85 0.61-0.54 0.93-0.8c0.63-0.51 1.29-1 2-1.45s1.39-0.88 2.1-1.26 1.47-0.73 2.22-1 1.52-0.59 2.3-0.83 1.58-0.44 2.37-0.6 1.62-0.28 2.43-0.37q0.62-0.06 1.23-0.09 1.23-0.06 2.46 0 0.62 0 1.23 0.09c0.81 0.09 1.62 0.21 2.42 0.37a24.37 24.37 0 0 1 2.38 0.6c0.77 0.24 1.55 0.52 2.3 0.83s1.5 0.66 2.21 1 1.43 0.81 2.11 1.26 1.34 0.94 2 1.45c0.32 0.26 0.63 0.53 0.93 0.8s0.61 0.57 0.9 0.85 0.57 0.59 0.85 0.9 0.54 0.61 0.8 0.93c0.51 0.63 1 1.29 1.46 2s0.87 1.39 1.25 2.11 0.73 1.46 1 2.21 0.58 1.53 0.82 2.3a24.37 24.37 0 0 1 0.6 2.38c0.16 0.8 0.29 1.61 0.37 2.42q0.06 0.62 0.09 1.23t0 1.23v1.23q0 0.62-0.09 1.23a25.479 25.479 0 0 1-1.79 7.1c-0.31 0.75-0.67 1.5-1 2.21s-0.8 1.43-1.25 2.11-1 1.34-1.46 2c-0.26 0.32-0.53 0.63-0.8 0.93s-0.56 0.61-0.85 0.9-0.59 0.57-0.9 0.85-0.61 0.54-0.93 0.8c-0.63 0.51-1.29 1-2 1.45s-1.39 0.88-2.11 1.26-1.46 0.73-2.21 1a24.66 24.66 0 0 1-4.68 1.43c-0.8 0.16-1.61 0.28-2.42 0.37l-1.23 0.09zM438.06 607.19h-1.23l-1.23-0.09c-0.81-0.09-1.62-0.21-2.42-0.37a24.37 24.37 0 0 1-2.38-0.6c-0.77-0.24-1.55-0.52-2.3-0.83s-1.5-0.66-2.21-1-1.43-0.81-2.11-1.26-1.34-0.94-2-1.45c-0.32-0.26-0.63-0.53-0.93-0.8s-0.61-0.56-0.9-0.85-0.57-0.59-0.84-0.9-0.55-0.61-0.81-0.93c-0.51-0.63-1-1.29-1.45-2s-0.88-1.39-1.26-2.11-0.73-1.46-1-2.21-0.59-1.53-0.83-2.3a24.37 24.37 0 0 1-0.6-2.38c-0.16-0.8-0.28-1.61-0.37-2.42q-0.06-0.61-0.09-1.23t0-1.23V581q0-0.61 0.09-1.23c0.09-0.81 0.21-1.63 0.37-2.43s0.36-1.59 0.6-2.37 0.52-1.55 0.83-2.3 0.66-1.5 1-2.22 0.81-1.42 1.26-2.1 0.94-1.34 1.45-2c0.26-0.32 0.53-0.63 0.81-0.94s0.56-0.6 0.84-0.89 0.59-0.57 0.9-0.85 0.61-0.54 0.93-0.8a23.32 23.32 0 0 1 2-1.46c0.68-0.45 1.39-0.87 2.11-1.25s1.46-0.74 2.21-1a25.64 25.64 0 0 1 4.68-1.42c0.8-0.16 1.61-0.29 2.42-0.37l1.23-0.09h2.46l1.23 0.09c0.81 0.08 1.63 0.21 2.43 0.37s1.59 0.36 2.37 0.6a23.28 23.28 0 0 1 2.3 0.82c0.75 0.31 1.5 0.67 2.22 1s1.42 0.8 2.1 1.25a23.32 23.32 0 0 1 2 1.46c0.32 0.26 0.63 0.53 0.94 0.8s0.6 0.56 0.89 0.85 0.58 0.59 0.85 0.89 0.54 0.62 0.8 0.94a23.32 23.32 0 0 1 1.46 2c0.45 0.68 0.87 1.38 1.25 2.1s0.73 1.46 1 2.22a23.28 23.28 0 0 1 0.82 2.3c0.24 0.78 0.44 1.58 0.6 2.37s0.29 1.62 0.37 2.43q0.06 0.62 0.09 1.23t0 1.23v1.23q0 0.61-0.09 1.23c-0.08 0.81-0.21 1.62-0.37 2.42a25.64 25.64 0 0 1-1.42 4.68c-0.32 0.75-0.67 1.5-1 2.21s-0.8 1.43-1.25 2.11a23.32 23.32 0 0 1-1.46 2c-0.26 0.32-0.53 0.63-0.8 0.93s-0.56 0.61-0.85 0.9-0.59 0.57-0.89 0.85-0.62 0.54-0.94 0.8c-0.63 0.51-1.29 1-2 1.45s-1.38 0.88-2.1 1.26-1.47 0.73-2.22 1-1.52 0.59-2.3 0.83-1.58 0.44-2.37 0.6-1.62 0.28-2.43 0.37l-1.23 0.09c-0.4-0.01-0.82 0-1.23 0zM511.22 401H510c-0.41 0-0.82-0.05-1.22-0.1-0.81-0.08-1.63-0.2-2.43-0.36a24.18 24.18 0 0 1-2.37-0.6c-0.78-0.24-1.55-0.52-2.31-0.83s-1.49-0.66-2.21-1a23.33 23.33 0 0 1-2.1-1.26c-0.68-0.45-1.35-0.94-2-1.45-0.31-0.26-0.63-0.53-0.93-0.8s-0.6-0.56-0.89-0.85-0.58-0.59-0.85-0.9-0.55-0.61-0.8-0.93a23.32 23.32 0 0 1-1.46-2c-0.45-0.68-0.87-1.39-1.26-2.11s-0.73-1.46-1-2.21-0.59-1.52-0.83-2.3-0.44-1.58-0.6-2.37-0.28-1.62-0.36-2.43q-0.06-0.61-0.09-1.23v-1.23-1.23c0-0.41 0.05-0.82 0.09-1.23 0.08-0.81 0.2-1.62 0.36-2.42s0.37-1.6 0.6-2.38 0.52-1.55 0.83-2.3 0.66-1.5 1-2.21 0.81-1.43 1.26-2.11a23.32 23.32 0 0 1 1.46-2c0.25-0.32 0.52-0.63 0.8-0.94s0.56-0.6 0.85-0.89 0.59-0.57 0.89-0.85 0.62-0.54 0.93-0.8c0.63-0.51 1.3-1 2-1.46s1.38-0.87 2.1-1.25 1.46-0.73 2.21-1a24.49 24.49 0 0 1 2.31-0.83 24.18 24.18 0 0 1 2.37-0.6c0.8-0.16 1.62-0.28 2.43-0.37 0.4 0 0.81-0.07 1.22-0.09h2.47c0.4 0 0.82 0.05 1.22 0.09 0.81 0.09 1.63 0.21 2.43 0.37a24.18 24.18 0 0 1 2.37 0.6 23.52 23.52 0 0 1 2.31 0.83c0.75 0.31 1.49 0.66 2.21 1s1.43 0.81 2.1 1.25 1.35 1 2 1.46c0.31 0.26 0.63 0.53 0.93 0.8s0.6 0.56 0.89 0.85 0.58 0.59 0.85 0.89 0.54 0.62 0.8 0.94a23.32 23.32 0 0 1 1.46 2c0.45 0.68 0.87 1.39 1.25 2.11a22.33 22.33 0 0 1 1 2.21 23.28 23.28 0 0 1 0.82 2.3 24.37 24.37 0 0 1 0.6 2.38 22.1 22.1 0 0 1 0.37 2.42q0.06 0.61 0.09 1.23t0 1.23v1.23q0 0.61-0.09 1.23a22.65 22.65 0 0 1-0.37 2.43c-0.16 0.79-0.36 1.59-0.6 2.37a23.28 23.28 0 0 1-0.82 2.3 22.33 22.33 0 0 1-1 2.21c-0.38 0.72-0.8 1.43-1.25 2.11a23.32 23.32 0 0 1-1.46 2c-0.26 0.32-0.52 0.63-0.8 0.93s-0.56 0.61-0.85 0.9-0.59 0.57-0.89 0.85-0.62 0.54-0.93 0.8c-0.63 0.51-1.3 1-2 1.45A23.33 23.33 0 0 1 523 398c-0.72 0.38-1.46 0.73-2.21 1s-1.53 0.59-2.31 0.83a24.18 24.18 0 0 1-2.37 0.6c-0.8 0.16-1.62 0.28-2.43 0.36-0.4 0.05-0.82 0.08-1.22 0.1s-0.83 0.11-1.24 0.11zM441.39 470.84h-1.24c-0.41 0-0.82-0.05-1.22-0.1a24.176 24.176 0 0 1-4.8-0.96c-0.78-0.24-1.55-0.52-2.3-0.83s-1.5-0.66-2.22-1-1.42-0.81-2.1-1.26-1.34-0.94-2-1.45a23.678 23.678 0 0 1-1.83-1.66c-0.29-0.29-0.58-0.59-0.85-0.89s-0.54-0.62-0.8-0.93a25.75 25.75 0 0 1-3.76-6.29 25.64 25.64 0 0 1-1.42-4.68c-0.16-0.8-0.29-1.61-0.37-2.42q-0.06-0.62-0.09-1.23t0-1.23v-1.23q0-0.62 0.09-1.23a25.479 25.479 0 0 1 0.97-4.8 23.28 23.28 0 0 1 0.82-2.3 23.63 23.63 0 0 1 1.05-2.22c0.38-0.71 0.8-1.42 1.25-2.1a23.32 23.32 0 0 1 1.46-2c0.26-0.32 0.53-0.63 0.8-0.94s0.56-0.6 0.85-0.89 0.59-0.57 0.89-0.85 0.62-0.54 0.94-0.8c0.63-0.51 1.29-1 2-1.46s1.38-0.87 2.1-1.25 1.46-0.74 2.22-1.05a23.28 23.28 0 0 1 2.3-0.82c0.78-0.24 1.58-0.44 2.37-0.6s1.62-0.29 2.43-0.37c0.4 0 0.82-0.07 1.22-0.09h2.47l1.23 0.09c0.81 0.08 1.62 0.21 2.42 0.37a25.64 25.64 0 0 1 4.68 1.42c0.75 0.31 1.49 0.67 2.21 1.05a23.24 23.24 0 0 1 2.1 1.25c0.68 0.45 1.35 0.95 2 1.46 0.31 0.26 0.63 0.53 0.93 0.8s0.61 0.56 0.89 0.85 0.58 0.59 0.85 0.89 0.55 0.62 0.81 0.94c0.51 0.63 1 1.29 1.45 2s0.87 1.39 1.26 2.1 0.73 1.47 1 2.22 0.59 1.52 0.83 2.3 0.44 1.58 0.6 2.37 0.28 1.62 0.36 2.43q0.06 0.62 0.09 1.23v2.46c0 0.41-0.05 0.82-0.09 1.23-0.08 0.81-0.2 1.62-0.36 2.42s-0.37 1.6-0.6 2.38-0.52 1.55-0.83 2.3-0.66 1.49-1 2.21-0.81 1.43-1.26 2.1-0.94 1.35-1.45 2c-0.26 0.31-0.53 0.63-0.81 0.93s-0.56 0.61-0.85 0.89-0.58 0.58-0.89 0.85-0.62 0.55-0.93 0.81c-0.63 0.51-1.3 1-2 1.45a23.33 23.33 0 0 1-2.1 1.26c-0.72 0.38-1.46 0.73-2.21 1s-1.53 0.59-2.3 0.83a24.37 24.37 0 0 1-2.38 0.6c-0.8 0.16-1.61 0.28-2.42 0.36-0.41 0.05-0.82 0.08-1.23 0.1zM371.55 540.68h-1.23c-0.41 0-0.82-0.06-1.23-0.1a24.176 24.176 0 0 1-4.8-0.96c-0.78-0.24-1.55-0.52-2.3-0.83s-1.5-0.66-2.22-1-1.42-0.81-2.1-1.26-1.34-0.94-2-1.45a23.678 23.678 0 0 1-1.83-1.66c-0.29-0.29-0.57-0.59-0.85-0.89s-0.54-0.62-0.8-0.93c-0.51-0.63-1-1.3-1.46-2a23.24 23.24 0 0 1-1.25-2.1c-0.38-0.72-0.73-1.46-1.05-2.21a26.29 26.29 0 0 1-1.42-4.68c-0.16-0.8-0.29-1.62-0.37-2.43 0-0.4-0.07-0.81-0.09-1.22s0-0.83 0-1.23v-1.24c0-0.41 0.05-0.82 0.09-1.22 0.08-0.81 0.21-1.63 0.37-2.43a24.18 24.18 0 0 1 0.6-2.37 23.46 23.46 0 0 1 0.82-2.31c0.32-0.75 0.67-1.49 1.05-2.21s0.8-1.42 1.25-2.1 0.95-1.35 1.46-2c0.26-0.31 0.53-0.63 0.8-0.93s0.56-0.6 0.85-0.89 0.59-0.58 0.89-0.85 0.62-0.54 0.94-0.8a23.32 23.32 0 0 1 2-1.46c0.68-0.45 1.39-0.87 2.1-1.25a23.63 23.63 0 0 1 2.22-1.05c0.75-0.31 1.52-0.59 2.3-0.83s1.58-0.43 2.37-0.6 1.62-0.28 2.43-0.36l1.23-0.09a20.19 20.19 0 0 1 2.46 0l1.23 0.09c0.81 0.08 1.62 0.2 2.42 0.36s1.6 0.37 2.38 0.6 1.55 0.52 2.3 0.83a22.33 22.33 0 0 1 2.21 1.05c0.72 0.38 1.43 0.8 2.11 1.25a23.32 23.32 0 0 1 2 1.46c0.32 0.26 0.63 0.53 0.93 0.8s0.61 0.56 0.9 0.85 0.57 0.59 0.85 0.89 0.54 0.62 0.8 0.93c0.51 0.63 1 1.3 1.46 2s0.87 1.38 1.25 2.1 0.73 1.46 1 2.21a23.52 23.52 0 0 1 0.83 2.31 24.18 24.18 0 0 1 0.6 2.37c0.16 0.8 0.28 1.62 0.37 2.43 0 0.4 0.07 0.82 0.09 1.22s0 0.83 0 1.24v1.23c0 0.41 0 0.82-0.09 1.22-0.09 0.81-0.21 1.63-0.37 2.43a25.27 25.27 0 0 1-1.43 4.68c-0.31 0.75-0.66 1.49-1 2.21a23.24 23.24 0 0 1-1.25 2.1c-0.46 0.68-0.95 1.35-1.46 2-0.26 0.31-0.53 0.63-0.8 0.93s-0.56 0.61-0.85 0.89-0.59 0.58-0.9 0.85-0.61 0.55-0.93 0.81c-0.63 0.51-1.29 1-2 1.45s-1.39 0.87-2.11 1.26-1.46 0.73-2.21 1-1.53 0.59-2.3 0.83a24.37 24.37 0 0 1-2.38 0.6c-0.8 0.16-1.61 0.28-2.42 0.36-0.41 0-0.82 0.08-1.23 0.1zM644.25 534H643l-1.23-0.1q-1.21-0.12-2.43-0.36c-0.79-0.16-1.59-0.37-2.37-0.6s-1.55-0.52-2.3-0.83-1.5-0.66-2.22-1-1.42-0.81-2.1-1.26a23.32 23.32 0 0 1-2-1.46c-0.32-0.25-0.63-0.52-0.94-0.8s-0.6-0.56-0.89-0.85-0.57-0.59-0.85-0.89-0.54-0.62-0.8-0.93c-0.52-0.63-1-1.3-1.46-2a23.24 23.24 0 0 1-1.25-2.1c-0.38-0.72-0.74-1.46-1.05-2.21a23.46 23.46 0 0 1-0.82-2.31 24.18 24.18 0 0 1-0.6-2.37c-0.16-0.8-0.29-1.62-0.37-2.43 0-0.4-0.07-0.82-0.09-1.22s0-0.83 0-1.24v-1.23c0-0.41 0.05-0.82 0.09-1.23 0.08-0.8 0.21-1.62 0.37-2.42a25.64 25.64 0 0 1 1.42-4.68c0.31-0.75 0.67-1.49 1.05-2.21a23.24 23.24 0 0 1 1.25-2.1c0.46-0.68 0.94-1.35 1.46-2 0.26-0.31 0.53-0.63 0.8-0.93s0.56-0.61 0.85-0.89 0.59-0.58 0.89-0.85 0.62-0.55 0.94-0.81c0.63-0.51 1.29-1 2-1.45s1.39-0.87 2.1-1.26 1.47-0.73 2.22-1a23.28 23.28 0 0 1 2.3-0.82c0.78-0.24 1.58-0.44 2.37-0.6a22.65 22.65 0 0 1 2.43-0.37l1.23-0.09h2.46l1.23 0.09a22.1 22.1 0 0 1 2.42 0.37 24.37 24.37 0 0 1 2.38 0.6 23.28 23.28 0 0 1 2.3 0.82c0.75 0.31 1.5 0.66 2.21 1s1.43 0.81 2.11 1.26 1.34 0.94 2 1.45q0.48 0.39 0.93 0.81c0.31 0.27 0.61 0.56 0.9 0.85s0.57 0.59 0.85 0.89 0.54 0.62 0.8 0.93c0.51 0.63 1 1.3 1.46 2s0.87 1.38 1.25 2.1 0.73 1.46 1 2.21 0.59 1.53 0.83 2.3a24.37 24.37 0 0 1 0.6 2.38c0.16 0.8 0.28 1.62 0.36 2.42 0 0.41 0.08 0.82 0.1 1.23s0 0.83 0 1.23v1.24c0 0.41-0.05 0.82-0.1 1.22-0.08 0.81-0.2 1.63-0.36 2.43a24.18 24.18 0 0 1-0.6 2.37c-0.24 0.78-0.52 1.56-0.83 2.31s-0.66 1.49-1 2.21-0.81 1.43-1.25 2.1-0.95 1.35-1.46 2c-0.26 0.31-0.53 0.63-0.8 0.93s-0.56 0.6-0.85 0.89-0.59 0.58-0.9 0.85-0.61 0.55-0.93 0.8a23.32 23.32 0 0 1-2 1.46c-0.68 0.45-1.39 0.87-2.11 1.26s-1.46 0.73-2.21 1-1.52 0.59-2.3 0.83-1.58 0.44-2.38 0.6-1.61 0.28-2.42 0.36l-1.23 0.1zM574.41 603.86h-1.23l-1.23-0.09c-0.81-0.08-1.62-0.21-2.42-0.37a25.64 25.64 0 0 1-4.68-1.42c-0.75-0.31-1.5-0.67-2.21-1.05s-1.43-0.8-2.11-1.25a23.32 23.32 0 0 1-2-1.46c-0.32-0.26-0.63-0.53-0.93-0.8s-0.61-0.56-0.9-0.85-0.57-0.59-0.85-0.89-0.54-0.62-0.8-0.93c-0.51-0.63-1-1.3-1.45-2s-0.88-1.38-1.26-2.1-0.73-1.46-1-2.22a23.34 23.34 0 0 1-0.83-2.3c-0.24-0.78-0.44-1.58-0.6-2.37s-0.28-1.62-0.37-2.43q-0.06-0.62-0.09-1.23t0-1.23v-1.23q0-0.62 0.09-1.23c0.09-0.81 0.21-1.62 0.37-2.42a24.66 24.66 0 0 1 1.43-4.68c0.31-0.75 0.66-1.5 1-2.21s0.81-1.43 1.26-2.11 0.94-1.34 1.45-2c0.26-0.32 0.53-0.63 0.8-0.93s0.56-0.61 0.85-0.9 0.59-0.57 0.9-0.84 0.61-0.55 0.93-0.81c0.63-0.51 1.29-1 2-1.45s1.39-0.87 2.11-1.26 1.46-0.73 2.21-1 1.53-0.59 2.3-0.83a24.37 24.37 0 0 1 2.38-0.6c0.8-0.16 1.61-0.28 2.42-0.36 0.41 0 0.82-0.08 1.23-0.1h2.47c0.4 0 0.82 0.05 1.22 0.1a24.176 24.176 0 0 1 4.8 0.96c0.78 0.24 1.55 0.52 2.3 0.83s1.5 0.66 2.22 1 1.42 0.81 2.1 1.26 1.34 0.94 2 1.45c0.32 0.26 0.63 0.53 0.94 0.81s0.6 0.56 0.89 0.84 0.58 0.59 0.85 0.9 0.54 0.61 0.8 0.93c0.51 0.63 1 1.29 1.46 2s0.87 1.39 1.25 2.11 0.73 1.46 1 2.21 0.58 1.53 0.82 2.3a24.37 24.37 0 0 1 0.6 2.38c0.16 0.8 0.29 1.61 0.37 2.42q0.06 0.61 0.09 1.23t0 1.23v1.23q0 0.62-0.09 1.23c-0.08 0.81-0.21 1.63-0.37 2.43s-0.36 1.59-0.6 2.37-0.51 1.55-0.82 2.3-0.67 1.5-1 2.22-0.8 1.42-1.25 2.1-1 1.35-1.46 2c-0.26 0.31-0.53 0.63-0.8 0.93s-0.56 0.6-0.85 0.89-0.59 0.58-0.89 0.85-0.62 0.54-0.94 0.8a23.32 23.32 0 0 1-2 1.46c-0.68 0.45-1.38 0.87-2.1 1.25s-1.46 0.74-2.22 1.05a23.28 23.28 0 0 1-2.3 0.82c-0.78 0.24-1.58 0.44-2.37 0.6s-1.62 0.29-2.43 0.37c-0.4 0-0.82 0.07-1.22 0.09s-0.83 0-1.24 0zM504.57 673.7h-1.23c-0.41 0-0.82 0-1.23-0.1-0.81-0.08-1.62-0.2-2.42-0.36a24.37 24.37 0 0 1-2.38-0.6c-0.77-0.24-1.55-0.52-2.3-0.83s-1.5-0.66-2.21-1-1.43-0.81-2.11-1.26-1.34-0.94-2-1.45c-0.32-0.26-0.63-0.53-0.93-0.8s-0.61-0.57-0.9-0.85-0.57-0.59-0.85-0.9-0.54-0.61-0.8-0.93c-0.51-0.63-1-1.29-1.45-2s-0.87-1.39-1.26-2.1-0.73-1.47-1-2.22-0.59-1.52-0.83-2.3-0.44-1.58-0.6-2.37-0.28-1.62-0.36-2.43c-0.05-0.41-0.08-0.82-0.1-1.23s0-0.82 0-1.23v-1.23c0-0.41 0-0.82 0.1-1.23 0.08-0.81 0.2-1.62 0.36-2.42a24.37 24.37 0 0 1 0.6-2.38c0.24-0.78 0.52-1.55 0.83-2.3s0.66-1.5 1-2.21 0.81-1.43 1.26-2.11 0.94-1.34 1.45-2c0.26-0.32 0.53-0.63 0.8-0.93s0.57-0.61 0.85-0.9 0.59-0.57 0.9-0.85 0.61-0.54 0.93-0.8c0.63-0.51 1.29-1 2-1.45s1.39-0.88 2.11-1.26 1.46-0.73 2.21-1 1.53-0.59 2.3-0.83a24.37 24.37 0 0 1 2.38-0.6c0.8-0.16 1.61-0.28 2.42-0.36 0.41-0.05 0.82-0.08 1.23-0.1h2.46c0.41 0 0.83 0 1.23 0.1a24.176 24.176 0 0 1 4.8 0.96c0.78 0.24 1.55 0.52 2.3 0.83s1.5 0.66 2.22 1 1.42 0.81 2.1 1.26 1.34 0.94 2 1.45c0.32 0.26 0.63 0.53 0.94 0.8l0.89 0.85c0.29 0.29 0.58 0.59 0.85 0.9s0.54 0.61 0.8 0.93a23.32 23.32 0 0 1 1.46 2c0.45 0.68 0.87 1.39 1.25 2.11s0.74 1.46 1 2.21a23.28 23.28 0 0 1 0.82 2.3 24.37 24.37 0 0 1 0.6 2.38c0.16 0.8 0.29 1.61 0.37 2.42q0.06 0.62 0.09 1.23t0 1.23v1.23c0 0.4 0 0.82-0.09 1.23-0.08 0.81-0.21 1.63-0.37 2.43s-0.36 1.59-0.6 2.37a23.28 23.28 0 0 1-0.82 2.3c-0.31 0.75-0.67 1.5-1 2.22s-0.8 1.42-1.25 2.1a23.32 23.32 0 0 1-1.46 2c-0.26 0.32-0.53 0.63-0.8 0.93s-0.56 0.61-0.85 0.9l-0.89 0.85c-0.31 0.27-0.62 0.54-0.94 0.8-0.63 0.51-1.29 1-2 1.45s-1.38 0.88-2.1 1.26-1.46 0.73-2.22 1-1.52 0.59-2.3 0.83-1.58 0.44-2.37 0.6-1.62 0.28-2.43 0.36c-0.4 0-0.82 0.08-1.23 0.1s-0.8 0-1.23 0z" fill="#10A38B" p-id="10806"></path></svg>