<?xml version="1.0" standalone="no"?><!DOCTYPE svg PUBLIC "-//W3C//DTD SVG 1.1//EN" "http://www.w3.org/Graphics/SVG/1.1/DTD/svg11.dtd"><svg t="1652342404192" class="icon" viewBox="0 0 1024 1024" version="1.1" xmlns="http://www.w3.org/2000/svg" p-id="6381" xmlns:xlink="http://www.w3.org/1999/xlink" width="200" height="200"><defs><style type="text/css"></style></defs><path d="M857.73 684.57c-25 0-45.27-21.28-45.27-47.53v-213.6c0-119.77-63.58-224-157.25-277.37a494.47 494.47 0 0 1 11 104c0 259.59-200.45 470-447.71 470a429 429 0 0 1-92.34-10 49.21 49.21 0 0 0-5.16 22v14.13c0 34.61 26.73 62.67 59.69 62.67h662.62c33 0 59.69-28.06 59.69-62.67v-14.11c0-26.24-20.27-47.52-45.27-47.52z" fill="#C9F4EB" p-id="6382"></path><path d="M512 941.45A122.63 122.63 0 0 1 389.5 819v-10.13a25 25 0 0 1 25-25h195a25 25 0 0 1 25 25V819A122.63 122.63 0 0 1 512 941.45z m-71-107.58a72.51 72.51 0 0 0 141.92 0z" fill="#FFA143" p-id="6383"></path><path d="M843.31 833.87H180.69C134 833.87 96 794.54 96 746.2v-14.11c0-40 31.52-72.52 70.27-72.52 11.17 0 20.27-10.11 20.27-22.53v-213.6c0-90.71 33.7-176 94.9-240.29a323.74 323.74 0 0 1 103.46-73.21 313.29 313.29 0 0 1 254.2 0 323.74 323.74 0 0 1 103.46 73.21c61.2 64.25 94.9 149.58 94.9 240.29V637c0 12.42 9.1 22.53 20.27 22.53 38.75 0 70.27 32.53 70.27 72.52v14.15c0 48.34-38 87.67-84.69 87.67zM512 133c-151.89 0-275.46 130.29-275.46 290.44V637c0 40-31.53 72.53-70.27 72.53-11.18 0-20.27 10.1-20.27 22.52v14.15c0 20.77 15.56 37.67 34.69 37.67h662.62c19.13 0 34.69-16.9 34.69-37.67v-14.11c0-12.42-9.09-22.52-20.27-22.52-38.73 0-70.27-32.57-70.27-72.57V423.44C787.46 263.29 663.89 133 512 133z" fill="#10A38B" p-id="6384"></path><path d="M721.94 473.51h-0.55A25 25 0 0 1 696.93 448c1.48-68.67-19.2-125.07-61.47-167.63-32.06-32.28-65.36-44.43-65.69-44.55h0.1l16.43-47.22c1.73 0.6 42.74 15.16 82.76 54.63 36.76 36.27 80.11 101.41 77.86 205.82a25 25 0 0 1-24.98 24.46z" fill="#FFA143" p-id="6385"></path></svg>