<?xml version="1.0" standalone="no"?><!DOCTYPE svg PUBLIC "-//W3C//DTD SVG 1.1//EN" "http://www.w3.org/Graphics/SVG/1.1/DTD/svg11.dtd"><svg t="1652342390460" class="icon" viewBox="0 0 1024 1024" version="1.1" xmlns="http://www.w3.org/2000/svg" p-id="5522" xmlns:xlink="http://www.w3.org/1999/xlink" width="200" height="200"><defs><style type="text/css"></style></defs><path d="M843.19 118q0.21 9.24 0.22 18.54c0 394-289 716.44-654.41 741.58 1 37.87 30.21 68.25 66.13 68.25H805c36.55 0 66.18-31.43 66.18-70.22V118z" fill="#C9F4EB" p-id="5523"></path><path d="M695.14 574H328.86a25 25 0 0 1 0-50h366.28a25 25 0 0 1 0 50z" fill="#10A38B" p-id="5524"></path><path d="M762.15 958.72h-500.3a125.14 125.14 0 0 1-125-125V190a125.14 125.14 0 0 1 125-125h500.3a125.14 125.14 0 0 1 125 125v643.72a125.14 125.14 0 0 1-125 125zM261.85 115a75.09 75.09 0 0 0-75 75v643.72a75.09 75.09 0 0 0 75 75h500.3a75.09 75.09 0 0 0 75-75V190a75.09 75.09 0 0 0-75-75z" fill="#10A38B" p-id="5525"></path><path d="M670.05 267a25 25 0 0 1-25-25v-73.78a25 25 0 0 1 50 0V242a25 25 0 0 1-25 25z" fill="#FFA143" p-id="5526"></path><path d="M652.54 346H371.46a125.14 125.14 0 0 1-125-125V90a25 25 0 0 1 25-25h481.08a25 25 0 0 1 25 25v131a125.14 125.14 0 0 1-125 125zM296.46 115v106a75.09 75.09 0 0 0 75 75h281.08a75.09 75.09 0 0 0 75-75V115z" fill="#10A38B" p-id="5527"></path></svg>