<?xml version="1.0" standalone="no"?><!DOCTYPE svg PUBLIC "-//W3C//DTD SVG 1.1//EN" "http://www.w3.org/Graphics/SVG/1.1/DTD/svg11.dtd"><svg t="1652342402052" class="icon" viewBox="0 0 1024 1024" version="1.1" xmlns="http://www.w3.org/2000/svg" p-id="6236" xmlns:xlink="http://www.w3.org/1999/xlink" width="200" height="200"><defs><style type="text/css"></style></defs><path d="M898.65 346.12c13.46-7.29 21.86-22 21.86-38v-53.87c0-35.34-27.31-64.25-60.68-64.25H535.27a474.85 474.85 0 0 1 42.8 198.08c0 251-192.18 454.53-429.25 454.53a408.72 408.72 0 0 1-63.82-5c7.94 25.7 30.75 44.27 57.67 44.27h717.16c33.37 0 60.68-28.92 60.68-64.26v-53.83c0-16-8.4-30.74-21.86-38C833.54 690.46 789 618.71 789 535.94s44.54-154.52 109.65-189.82z" fill="#C9F4EB" p-id="6237"></path><path d="M346.28 882.76a25 25 0 0 1-25-25V190.11a25 25 0 0 1 50 0v667.65a25 25 0 0 1-25 25z" fill="#10A38B" p-id="6238"></path><path d="M584.77 718a30 30 0 0 1-30-30V495.45a30 30 0 0 1 60 0V688a30 30 0 0 1-30 30z" fill="#FFA143" p-id="6239"></path><path d="M692.41 620H477.12a30 30 0 0 1 0-60h215.29a30 30 0 1 1 0 60zM692.41 517.07H477.12a30 30 0 1 1 0-60h215.29a30 30 0 0 1 0 60z" fill="#FFA143" p-id="6240"></path><path d="M584.16 513.16a30 30 0 0 1-21.81-50.6l80.38-85.11a30 30 0 0 1 43.62 41.19L606 503.76a29.94 29.94 0 0 1-21.84 9.4z" fill="#FFA143" p-id="6241"></path><path d="M585.37 513.16a29.9 29.9 0 0 1-21.81-9.4l-80.38-85.12a30 30 0 0 1 43.62-41.19l80.38 85.11a30 30 0 0 1-21.81 50.6z" fill="#FFA143" p-id="6242"></path><path d="M870.32 906.88H153.16c-47.24 0-85.68-40-85.68-89.26v-53.83c0-25.34 13.39-48.33 35-60C162 671.48 199 607.17 199 535.94S162 400.4 102.43 368.1c-21.56-11.68-34.95-34.68-34.95-60v-53.85c0-49.25 38.44-89.25 85.68-89.25h717.16c47.24 0 85.68 40 85.68 89.25v53.84c0 25.33-13.39 48.33-35 60-59.58 32.3-96.59 96.61-96.59 167.84s37 135.54 96.59 167.83c21.56 11.69 35 34.68 35 60v53.83c0 49.25-38.44 89.29-85.68 89.29zM153.16 215c-19.67 0-35.68 17.61-35.68 39.25v53.84c0 6.87 3.45 13.17 8.77 16.06a231.8 231.8 0 0 1 88.88 86.38 249 249 0 0 1 0 250.82 231.8 231.8 0 0 1-88.88 86.38c-5.32 2.89-8.77 9.19-8.77 16.06v53.83c0 21.65 16 39.26 35.68 39.26h717.16c19.67 0 35.68-17.61 35.68-39.26v-53.83c0-6.87-3.44-13.17-8.77-16.06a231.87 231.87 0 0 1-88.88-86.38 249 249 0 0 1 0-250.82 231.87 231.87 0 0 1 88.88-86.38c5.33-2.89 8.77-9.19 8.77-16.06v-53.84c0-21.64-16-39.25-35.68-39.25z" fill="#10A38B" p-id="6243"></path></svg>