<?xml version="1.0" standalone="no"?><!DOCTYPE svg PUBLIC "-//W3C//DTD SVG 1.1//EN" "http://www.w3.org/Graphics/SVG/1.1/DTD/svg11.dtd"><svg t="1652342447543" class="icon" viewBox="0 0 1024 1024" version="1.1" xmlns="http://www.w3.org/2000/svg" p-id="8942" xmlns:xlink="http://www.w3.org/1999/xlink" width="200" height="200"><defs><style type="text/css"></style></defs><path d="M865.51 143q1.49 20.57 1.49 41.5C867 501.79 609.79 759 292.5 759A575.13 575.13 0 0 1 138 738v111.11A78.89 78.89 0 0 0 216.89 928h627.22A78.89 78.89 0 0 0 923 849.11V200.49A57.49 57.49 0 0 0 865.51 143z" fill="#C9F4EB" p-id="8943"></path><path d="M898.85 390.81a25 25 0 0 1-25-25v-179.2a35 35 0 0 0-35-35H658.32a25 25 0 1 1 0-50h180.53a85.1 85.1 0 0 1 85 85v179.2a25 25 0 0 1-25 25zM127.32 390.81a25 25 0 0 1-25-25v-179.2a85.1 85.1 0 0 1 85-85h180.53a25 25 0 0 1 0 50H187.32a35 35 0 0 0-35 35v179.2a25 25 0 0 1-25 25zM838.85 921.81H658.32a25 25 0 0 1 0-50h180.53a35 35 0 0 0 35-35v-179.2a25 25 0 0 1 50 0v179.2a85.1 85.1 0 0 1-85 85zM367.85 921.81H187.32a85.1 85.1 0 0 1-85-85v-179.2a25 25 0 0 1 50 0v179.2a35 35 0 0 0 35 35h180.53a25 25 0 0 1 0 50z" fill="#10A38B" p-id="8944"></path><path d="M684.5 396h-345a30 30 0 0 1 0-60h345a30 30 0 0 1 0 60zM684.5 712h-345a30 30 0 0 1 0-60h345a30 30 0 0 1 0 60z" fill="#FFA143" p-id="8945"></path><path d="M782.25 549h-540.5a25 25 0 0 1 0-50h540.5a25 25 0 0 1 0 50z" fill="#10A38B" p-id="8946"></path></svg>