<?xml version="1.0" standalone="no"?><!DOCTYPE svg PUBLIC "-//W3C//DTD SVG 1.1//EN" "http://www.w3.org/Graphics/SVG/1.1/DTD/svg11.dtd"><svg t="1652342413362" class="icon" viewBox="0 0 1024 1024" version="1.1" xmlns="http://www.w3.org/2000/svg" p-id="6950" xmlns:xlink="http://www.w3.org/1999/xlink" width="200" height="200"><defs><style type="text/css"></style></defs><path d="M133 861c-8.14 0 2.12 2.48 7 9 11 14.65 13.4 31 33 31h663.26A49.9 49.9 0 0 0 886 851.26V331.77C775 640.34 479.79 861 133 861z" fill="#C9F4EB" p-id="6951"></path><path d="M572.51 473a25 25 0 0 1-24.11-31.65l19-69a25 25 0 1 1 48.2 13.28l-19 69A25 25 0 0 1 572.51 473z" fill="#FFA143" p-id="6952"></path><path d="M799 924H226a125.14 125.14 0 0 1-125-125V226a125.14 125.14 0 0 1 125-125h573a125.14 125.14 0 0 1 125 125v573a125.14 125.14 0 0 1-125 125zM226 151a75.09 75.09 0 0 0-75 75v573a75.09 75.09 0 0 0 75 75h573a75.09 75.09 0 0 0 75-75V226a75.09 75.09 0 0 0-75-75z" fill="#10A38B" p-id="6953"></path><path d="M636.26 518a25 25 0 0 1-13.92-4.23 208.71 208.71 0 0 0-223.68-5l-9.29 5.63a25 25 0 0 1-37.45-16.3L317 329.63a25 25 0 0 1 11.53-26.45 355.1 355.1 0 0 1 367.9 0 25 25 0 0 1 11.12 28.13l-47.22 168.44A25 25 0 0 1 636.26 518z m-129.74-89.43c1.94 0 3.88 0 5.84 0.06a257.57 257.57 0 0 1 108.51 26.64l33.27-118.59a304 304 0 0 0-284.47 0.63l24.27 117.12a257.6 257.6 0 0 1 112.58-25.86z" fill="#10A38B" p-id="6954"></path></svg>