<?xml version="1.0" standalone="no"?><!DOCTYPE svg PUBLIC "-//W3C//DTD SVG 1.1//EN" "http://www.w3.org/Graphics/SVG/1.1/DTD/svg11.dtd"><svg t="1652342438281" class="icon" viewBox="0 0 1024 1024" version="1.1" xmlns="http://www.w3.org/2000/svg" p-id="8515" xmlns:xlink="http://www.w3.org/1999/xlink" width="200" height="200"><defs><style type="text/css"></style></defs><path d="M810.72 118.4a527.93 527.93 0 0 1 9.46 99.6c0 302.65-256.71 548-573.38 548a605.46 605.46 0 0 1-62.94-3.28V884c0 33 28.25 60 62.78 60H750a100 100 0 0 0 100-100V174c0-25.07-16.31-46.66-39.28-55.6z" fill="#C9F4EB" p-id="8516"></path><path d="M673.19 393h-333a25 25 0 0 1 0-50h333a25 25 0 0 1 0 50zM600.89 235H423.11C367.91 235 323 190.28 323 135.32v-12.5a25 25 0 0 1 50 0v12.5c0 27.39 22.48 49.68 50.11 49.68h177.78c27.63 0 50.11-22.29 50.11-49.68v-16.5a25 25 0 1 1 50 0v16.5c0 54.96-44.91 99.68-100.11 99.68zM673.19 585.5h-333a25 25 0 0 1 0-50h333a25 25 0 0 1 0 50z" fill="#10A38B" p-id="8517"></path><path d="M467 778H340a25 25 0 0 1 0-50h127a25 25 0 0 1 0 50z" fill="#FFA143" p-id="8518"></path><path d="M739.76 952H273.62a125.14 125.14 0 0 1-125-125V197a125.14 125.14 0 0 1 125-125h466.14a125.14 125.14 0 0 1 125 125v630a125.14 125.14 0 0 1-125 125zM273.62 122a75.08 75.08 0 0 0-75 75v630a75.08 75.08 0 0 0 75 75h466.14a75.08 75.08 0 0 0 75-75V197a75.08 75.08 0 0 0-75-75z" fill="#10A38B" p-id="8519"></path></svg>