<?xml version="1.0" standalone="no"?><!DOCTYPE svg PUBLIC "-//W3C//DTD SVG 1.1//EN" "http://www.w3.org/Graphics/SVG/1.1/DTD/svg11.dtd"><svg t="1652342461816" class="icon" viewBox="0 0 1024 1024" version="1.1" xmlns="http://www.w3.org/2000/svg" p-id="9946" xmlns:xlink="http://www.w3.org/1999/xlink" width="200" height="200"><defs><style type="text/css"></style></defs><path d="M795.8 264q0.19 7.44 0.2 14.92c0 317-262 576.33-593.29 596.55 0.9 30.46 27.39 54.9 60 54.9h498.47c33.14 0 60-25.29 60-56.48V264z" fill="#C9F4EB" p-id="9947"></path><path d="M415 719.88a25 25 0 0 1-25-25v-203a25 25 0 0 1 50 0v203a25 25 0 0 1-25 25zM606.05 719.22a25 25 0 0 1-25-25v-203a25 25 0 0 1 50 0v203a25 25 0 0 1-25 25z" fill="#FFA143" p-id="9948"></path><path d="M721.26 962H302.74a125.15 125.15 0 0 1-125-125V270.63a25 25 0 0 1 25-25h618.52a25 25 0 0 1 25 25V837a125.15 125.15 0 0 1-125 125zM227.74 295.63V837a75.09 75.09 0 0 0 75 75h418.52a75.09 75.09 0 0 0 75-75V295.63z" fill="#10A38B" p-id="9949"></path><path d="M742.18 294.15H281.82a25 25 0 0 1-25-25V218a125.14 125.14 0 0 1 125-125h260.36a125.14 125.14 0 0 1 125 125v51.15a25 25 0 0 1-25 25z m-435.36-50h410.36V218a75.09 75.09 0 0 0-75-75H381.82a75.09 75.09 0 0 0-75 75z" fill="#10A38B" p-id="9950"></path><path d="M902 295H122a25 25 0 0 1 0-50h780a25 25 0 0 1 0 50z" fill="#10A38B" p-id="9951"></path></svg>