<?xml version="1.0" standalone="no"?><!DOCTYPE svg PUBLIC "-//W3C//DTD SVG 1.1//EN" "http://www.w3.org/Graphics/SVG/1.1/DTD/svg11.dtd"><svg t="1652342420332" class="icon" viewBox="0 0 1024 1024" version="1.1" xmlns="http://www.w3.org/2000/svg" p-id="7377" xmlns:xlink="http://www.w3.org/1999/xlink" width="200" height="200"><defs><style type="text/css"></style></defs><path d="M804 70s-15.67 16.57-37.07 38.4c-2.44 151.18-79.43 284.24-195.81 364a58.81 58.81 0 0 1 3.12 8c12.38 36.27 55.66 68.3 93.94 70.13 0 0 70.38 7.77 97.79-56.54a117.31 117.31 0 0 0 13.18-65.89 137.47 137.47 0 0 1 14.89-72C832 295.16 938 190 938 190z" fill="#C9F4EB" p-id="7378"></path><path d="M212 973h-0.2a25 25 0 0 1-17.68-7.53L73.32 841.84a25 25 0 0 1 0.13-35.08c32.2-32.44 120-122.91 140.29-152.62 11.88-18.62 14-47.4 15.11-72.92v-0.24a391.77 391.77 0 0 1 7-56.31c0.09-0.43 0.18-0.86 0.29-1.28a108.36 108.36 0 0 1 76.49-77.75c24.78-8 56.91-1.06 65.95 22.33A24.56 24.56 0 0 1 380 473c6.5 40.58 21.35 56.79 58.8 64.08 26.31 4.41 45.72 22.84 52.07 49.43 7.69 27.8 38.82 56.42 66.13 61.07a33 33 0 0 1 24.89 12.53c13 16.47 7.53 40.45 5.86 46.44-8.5 33.63-46.47 74.86-103 89-27.1 6.68-56.31 9.34-75.64 11.1-5 0.45-10.86 1-14.5 1.44-18.25 14.39-96.1 89.34-165 157.65A25 25 0 0 1 212 973z m-85.79-148.57l86.11 88.13c15.63-15.39 39.56-38.85 63.86-62.36 86.83-84 93.4-86.52 99.75-89 0.42-0.16 0.85-0.32 1.28-0.46 5.53-1.82 12.4-2.5 27.39-3.86 17.84-1.63 44.78-4.08 68.13-9.84 36.76-9.19 61.95-36 66.41-52.21-19.45-5.2-38.89-16.16-55.83-31.61-20.15-18.38-34.65-41.11-40.82-64-0.08-0.29-0.15-0.58-0.22-0.87-2.12-9.15-7-11.15-11.88-11.94l-0.74-0.13c-54.85-10.56-85.12-39.68-96.86-93.79a17 17 0 0 0-4.89 0.79c-0.55 0.18-1.1 0.35-1.66 0.5a58.32 58.32 0 0 0-41.44 41.38 340.87 340.87 0 0 0-6 48.3c-1.36 32.18-4.41 68.93-23.21 98l-0.32 0.49c-20.78 30.62-94.93 107.57-129.06 142.48z m265.58-15.89zM670.36 583.86c-4.32 0-7.46-0.22-9-0.36-48.41-2.64-100.24-41.53-115.76-87l-0.27-0.82A33.85 33.85 0 0 0 526 474.36a129.86 129.86 0 0 1-61.17-35.62 145.16 145.16 0 0 1-35.37-62.89 120.13 120.13 0 0 1 73.08-149.16c0.44-0.17 0.89-0.32 1.34-0.45a141.18 141.18 0 0 1 56.27-5.38 128 128 0 0 0 80-24.94q0.48-0.36 1-0.69c28-18.71 110.34-103.37 139.7-134.41a25 25 0 0 1 34.84-1.44l134 120a25 25 0 0 1 0.93 36.37c-1 1-103.33 102.77-139.78 160.74a112.48 112.48 0 0 0-11.76 57.68 142 142 0 0 1-15.52 78.64c-14.34 32.89-40.18 55.57-74.79 65.61a140.05 140.05 0 0 1-38.41 5.44z m-4.51-50.16c3.27 0.3 52.77 3.92 72.12-41.48 0.28-0.65 0.59-1.29 0.92-1.91a92.1 92.1 0 0 0 10.37-51.86v-0.66a162.31 162.31 0 0 1 17.6-85c0.31-0.61 0.64-1.2 1-1.78 29.53-47.47 96.26-118.26 129-151.85l-96.41-86.35C767.88 146.51 699.68 216 669.42 236.46a178.09 178.09 0 0 1-112.12 34.33c-0.6 0-1.2-0.07-1.8-0.14a91.76 91.76 0 0 0-36.43 3.21 70 70 0 0 0-41.9 87.21c0.13 0.4 0.25 0.8 0.36 1.21 8.82 32.83 31.93 56.72 61.82 63.89a28.73 28.73 0 0 1 2.87 0.87A84.13 84.13 0 0 1 593 480.68c9.22 26.39 43.13 51.56 71.37 52.91 0.63 0.03 0.9 0.04 1.48 0.11z" fill="#10A38B" p-id="7379"></path><path d="M685.34 458a25 25 0 0 1-24.84-22.45c-11-107.1 56.92-157.68 59.82-159.78l29.36 40.46 0.19-0.14c-1.94 1.47-47.56 36.91-39.63 114.36a25 25 0 0 1-24.9 27.55z" fill="#FFA143" p-id="7380"></path></svg>