<?xml version="1.0" standalone="no"?><!DOCTYPE svg PUBLIC "-//W3C//DTD SVG 1.1//EN" "http://www.w3.org/Graphics/SVG/1.1/DTD/svg11.dtd"><svg t="1652342455913" class="icon" viewBox="0 0 1024 1024" version="1.1" xmlns="http://www.w3.org/2000/svg" p-id="9516" xmlns:xlink="http://www.w3.org/1999/xlink" width="200" height="200"><defs><style type="text/css"></style></defs><path d="M647 482.5V246.62H527.61a422 422 0 0 1 2.27 43.77c0 230.85-187.06 418-417.87 418.19a97.89 97.89 0 0 0 97.89 97.88L315 734l72 72 161.83 0.46L652 734l72 72 84.5 0.46c53.83 0 97.88-44.05 97.88-97.88V482.5z" fill="#C9F4EB" p-id="9517"></path><path d="M403.49 507.75H260.37a25 25 0 0 1 0-50h143.12a25 25 0 0 1 0 50z" fill="#FFA143" p-id="9518"></path><path d="M331.93 579.31a25 25 0 0 1-25-25V411.2a25 25 0 0 1 50 0v143.11a25 25 0 0 1-25 25z" fill="#FFA143" p-id="9519"></path><path d="M574.49 831.46H416.78a25 25 0 0 1 0-50h157.71a25 25 0 0 1 0 50z" fill="#10A38B" p-id="9520"></path><path d="M827.09 831.46h-92.76a25 25 0 1 1 0-50h92.76A73 73 0 0 0 900 708.58V507.5H665.56a25 25 0 0 1-25-25V271.62H192.24a73 73 0 0 0-72.88 72.89v364.07a73 73 0 0 0 72.88 72.88h31.89a25 25 0 1 1 0 50h-31.89A123 123 0 0 1 69.36 708.58V344.51a123 123 0 0 1 122.88-122.89h473.32a25 25 0 0 1 25 25V457.5H925a25 25 0 0 1 25 25v226.08a123 123 0 0 1-122.91 122.88z" fill="#10A38B" p-id="9521"></path><path d="M925.65 507.5H665.56a25 25 0 0 1-25-25V246.62a25 25 0 0 1 41.79-18.52L942.44 464a25 25 0 0 1-16.79 43.52z m-235.09-50h170.31L690.56 303.05zM314.53 903a96.82 96.82 0 1 1 96.82-96.81A96.92 96.92 0 0 1 314.53 903z m0-143.63a46.82 46.82 0 1 0 46.82 46.82 46.87 46.87 0 0 0-46.82-46.82zM652.29 903a96.82 96.82 0 1 1 96.82-96.81A96.92 96.92 0 0 1 652.29 903z m0-143.63a46.82 46.82 0 1 0 46.82 46.82 46.87 46.87 0 0 0-46.82-46.82zM392.34 269.85H271.53a25 25 0 0 1-25-25v-30.36a85.41 85.41 0 1 1 170.81 0v30.36a25 25 0 0 1-25 25z m-95.81-50h70.81v-5.36a35.41 35.41 0 1 0-70.81 0z" fill="#10A38B" p-id="9522"></path></svg>