<?xml version="1.0" standalone="no"?><!DOCTYPE svg PUBLIC "-//W3C//DTD SVG 1.1//EN" "http://www.w3.org/Graphics/SVG/1.1/DTD/svg11.dtd"><svg t="1652342454143" class="icon" viewBox="0 0 1024 1024" version="1.1" xmlns="http://www.w3.org/2000/svg" p-id="9372" xmlns:xlink="http://www.w3.org/1999/xlink" width="200" height="200"><defs><style type="text/css"></style></defs><path d="M608.91 121.4a450.32 450.32 0 0 1-84.16 515.23c2.27 1.11 4.3 2.25 6.13 3.37l2.83-0.2v2a47 47 0 0 1 9.09 7.76C521.17 628.69 625.87 732 625.87 732s122.88 0 226.76-144.66C939 467 852.41 179.59 608.91 121.4z" fill="#C9F4EB" p-id="9373"></path><path d="M520.63 640.73A448.53 448.53 0 0 1 205 770q-7.58 0-15.09-0.26c0.21 35.51 8.05 91.59 36.6 177.26 0 0 122.88-61.44 184.32-61.44s78-41.18 100.43-51.31c21.06-9.5 22.37-172.29 22.45-192.41-0.88-0.6-1.82-1.22-2.83-1.84z" fill="#C9F4EB" p-id="9374"></path><path d="M226.51 971a25 25 0 0 1-23.71-17.09C156.94 816.34 162 748.77 170.73 718.8l-19.9-23.75a25 25 0 0 1 2.06-34.28c8.22-7.71 10.85-12.49 11.67-14.49-1.86-1.79-7.63-6.2-22.64-10.48a166 166 0 0 0-24.55-4.94 25 25 0 0 1-20.14-35.17l54.88-121.24c-9.25-32.46-32-136.83 23.81-231.61 46.52-79 134.5-129.77 261.52-150.94 93.08-15.51 178.29-5 253.27 31.15 64.6 31.17 119.59 81.15 159 144.54 33.8 54.32 54.94 117.24 59.52 177.17 4.71 61.49-8.2 116.94-36.33 156.12C762.84 754.2 631.41 756 625.87 756a25 25 0 0 1-17.55-7.2s-21.55-21.26-43.08-42.53l-7.72-7.63c-0.41 11.11-0.94 23-1.66 35.11-1.68 28.38-4 51.61-7 69C544.4 829.36 538 848.6 521.55 856c-3 1.34-8.51 6.58-13.38 11.2-17.77 16.85-44.63 42.32-97.34 42.32-45.56 0-140.42 42.45-173.13 58.8a25 25 0 0 1-11.19 2.68z m-5.95-243.24c-1.39 2.88-20.53 46.65 21.09 183.44 12.14-5.52 27.64-12.31 44.7-19.13 53.93-21.57 95.81-32.51 124.48-32.51 32.77 0 47.43-13.89 62.94-28.6 6.6-6.26 13.38-12.7 21.43-17.47 2.39-6.65 8-28.52 11.31-92.79 1.3-25.27 1.83-49.42 2.05-64.86a68.31 68.31 0 0 0-16.33-3.77c-22.21-2.45-61 2.87-119.8 42.16a24.9 24.9 0 0 1-8.37 3.59c-3.77 0.86-37.84 7.43-74.33-23.84a25 25 0 0 1 32.54-38c12.26 10.51 22.74 12.63 28 12.94 57.91-37.54 109.68-52.92 153.94-45.7a111.12 111.12 0 0 1 33.31 10.83 25 25 0 0 1 17.54 11.67 59.19 59.19 0 0 1 7.05 7l0.16 0.2c11.9 11.86 46.07 45.62 73 72.21 11.44-1.46 32.31-5.47 58-16.39 52.64-22.42 99.44-61.79 139.09-117 21.28-29.64 30.91-73.37 27.1-123.15-4-52.06-22.5-106.95-52.12-154.57-36.12-58-143.65-189.11-361.64-152.78C334.15 159.81 258 202.4 219.24 267.82c-22.4 37.84-32.14 82.65-29 133.19 2.45 38.82 12 66.52 12.11 66.79a24.93 24.93 0 0 1-0.8 18.63l-45.84 101.31c0.86 0.24 1.72 0.5 2.59 0.76 29.54 8.93 47.78 23.12 54.2 42.19 3.78 11.24 3.07 23.5-2.05 35.45a73.58 73.58 0 0 1-7.51 13.26l15.75 18.8a25 25 0 0 1 1.87 29.56z m-0.77 1.14v0.05z m0 0z m0.82-1.24z" fill="#10A38B" p-id="9375"></path><path d="M226.51 848.13a25 25 0 0 1-7.2-49l155.48-46.73c24.2-7.27 41.76-37.92 41.76-72.86V638.8a25 25 0 0 1 50 0v40.74c0 57.39-31.81 107-77.35 120.75l-155.48 46.77a25.1 25.1 0 0 1-7.21 1.07z" fill="#10A38B" p-id="9376"></path><path d="M698.13 512.51H540a25 25 0 0 1-19.83-9.78l-48.26-62.89-57.81-33.95a25 25 0 0 1-12-17.48l-15.88-96.06a25 25 0 0 1 21.5-28.87l72.76-9.29a25 25 0 0 1 6.33 49.6l-47 6 9.74 58.91 51.91 30.49a24.9 24.9 0 0 1 7.18 6.34l43.72 57h138.86l44.7-26.73a25 25 0 1 1 25.66 42.91L711 509a25 25 0 0 1-12.87 3.51z" fill="#FFA143" p-id="9377"></path><path d="M318.67 571a25 25 0 0 1-25-25c0-16.42-27.56-23.65-27.84-23.72h0.16l11.25-48.72a111.09 111.09 0 0 1 31.17 13.25c22.74 14.23 35.26 35.24 35.26 59.15a25 25 0 0 1-25 25.04z" fill="#10A38B" p-id="9378"></path></svg>