<?xml version="1.0" standalone="no"?><!DOCTYPE svg PUBLIC "-//W3C//DTD SVG 1.1//EN" "http://www.w3.org/Graphics/SVG/1.1/DTD/svg11.dtd"><svg t="1652342399885" class="icon" viewBox="0 0 1024 1024" version="1.1" xmlns="http://www.w3.org/2000/svg" p-id="6093" xmlns:xlink="http://www.w3.org/1999/xlink" width="200" height="200"><defs><style type="text/css"></style></defs><path d="M639.35 266.6A598.63 598.63 0 0 1 649.74 378c0 272.47-182.22 498.55-421.09 541.41h543c7.39 0 13.43-6.59 13.43-14.63V512.29c0.04-108.88-59.97-203.23-145.73-245.69z" fill="#C9F4EB" p-id="6094"></path><path d="M695.35 957H330.86a125.14 125.14 0 0 1-125-125V455.44c0-59.93 23.48-116.42 66.13-159.07a223.58 223.58 0 0 1 159.07-66.13h164.08c59.94 0 116.43 23.48 159.08 66.13s66.13 99.14 66.13 159.07V832a125.14 125.14 0 0 1-125 125zM431.06 280.24c-96.61 0-175.2 78.6-175.2 175.2V832a75.08 75.08 0 0 0 75 75h364.49a75.09 75.09 0 0 0 75-75V455.44c0-96.6-78.6-175.2-175.21-175.2z" fill="#10A38B" p-id="6095"></path><path d="M643.83 280.24H382.38a58 58 0 0 1-57.89-57.89v-88.46A58 58 0 0 1 382.38 76h261.45a58 58 0 0 1 57.88 57.89v88.46a58 58 0 0 1-57.88 57.89zM382.38 126a7.9 7.9 0 0 0-7.89 7.89v88.46a7.9 7.9 0 0 0 7.89 7.89h261.45a7.9 7.9 0 0 0 7.88-7.89v-88.46a7.9 7.9 0 0 0-7.88-7.89z" fill="#10A38B" p-id="6096"></path><path d="M404 735.61a25 25 0 0 1-17.68-42.68l218.2-218.18a25 25 0 0 1 35.35 35.35L421.69 728.29a24.94 24.94 0 0 1-17.69 7.32z" fill="#FFA143" p-id="6097"></path><path d="M622.2 735.61a24.93 24.93 0 0 1-17.68-7.32L386.33 510.1a25 25 0 0 1 35.36-35.35l218.18 218.18a25 25 0 0 1-17.67 42.68z" fill="#FFA143" p-id="6098"></path></svg>