<?xml version="1.0" standalone="no"?><!DOCTYPE svg PUBLIC "-//W3C//DTD SVG 1.1//EN" "http://www.w3.org/Graphics/SVG/1.1/DTD/svg11.dtd"><svg t="1652342395143" class="icon" viewBox="0 0 1024 1024" version="1.1" xmlns="http://www.w3.org/2000/svg" p-id="5808" xmlns:xlink="http://www.w3.org/1999/xlink" width="200" height="200"><defs><style type="text/css"></style></defs><path d="M646.09 382.19C609.35 503.2 500 600.67 358.17 641.72c38.07 28.59 88.79 46 144.49 46 118.17 0 214-78.54 214-175.42-0.04-51.59-27.26-98.01-70.57-130.11z" fill="#C9F4EB" p-id="5809"></path><path d="M634.63 704.1a25 25 0 0 1-19.37-40.79c34.52-42.37 53.53-98.21 53.53-157.21 0-50.58-13.73-98.38-39.71-138.26A25 25 0 0 1 671 340.55c31.28 48 47.81 105.26 47.81 165.55 0 70.47-23 137.52-64.77 188.79a24.93 24.93 0 0 1-19.41 9.21zM405.61 712.52a25 25 0 0 1-18.78-8.52c-22.79-25.92-40.7-56.35-53.2-90.44a320.6 320.6 0 0 1-19.38-110.8c0-59.88 15.84-117 45.81-165.14a25 25 0 1 1 42.45 26.42c-25 40.22-38.26 88.19-38.26 138.72 0 64.39 21.35 124.13 60.13 168.21a25 25 0 0 1-18.77 41.52z" fill="#10A38B" p-id="5810"></path><path d="M512.5 564.85c-27.89 0-50.59-21.71-50.59-48.39s22.7-48.4 50.59-48.4 50.59 21.71 50.59 48.4-22.7 48.39-50.59 48.39z m1.22-46.49z" fill="#FFA143" p-id="5811"></path><path d="M505.91 731.22a367.47 367.47 0 0 1-121.34-20.3c-38.9-13.57-73.57-33.18-103-58.29L139.79 531.87a25 25 0 0 1 0-38.06L281.54 373c29.46-25.1 64.13-44.71 103-58.28a367.48 367.48 0 0 1 121.34-20.31c80.12 0 156.37 25.11 214.72 70.71l163.76 128a25 25 0 0 1 0 39.4l-163.76 128c-58.32 45.59-134.6 70.7-214.69 70.7zM194.55 512.84L314 614.57c49.72 42.36 119.68 66.65 192 66.65 69 0 134.34-21.35 183.93-60.1L828.4 512.84 689.84 404.56c-49.59-38.76-114.92-60.11-183.93-60.11-72.27 0-142.23 24.3-192 66.65zM897.85 393.81a25 25 0 0 1-25-25v-139.2a75.09 75.09 0 0 0-75-75H657.32a25 25 0 1 1 0-50h140.53a125.15 125.15 0 0 1 125 125v139.2a25 25 0 0 1-25 25zM126.32 393.81a25 25 0 0 1-25-25v-139.2a125.14 125.14 0 0 1 125-125h140.53a25 25 0 0 1 0 50H226.32a75.09 75.09 0 0 0-75 75v139.2a25 25 0 0 1-25 25zM797.85 924.81H657.32a25 25 0 0 1 0-50h140.53a75.09 75.09 0 0 0 75-75v-139.2a25 25 0 0 1 50 0v139.2a125.15 125.15 0 0 1-125 125zM366.85 924.81H226.32a125.14 125.14 0 0 1-125-125v-139.2a25 25 0 0 1 50 0v139.2a75.09 75.09 0 0 0 75 75h140.53a25 25 0 0 1 0 50z" fill="#10A38B" p-id="5812"></path></svg>