<?xml version="1.0" standalone="no"?><!DOCTYPE svg PUBLIC "-//W3C//DTD SVG 1.1//EN" "http://www.w3.org/Graphics/SVG/1.1/DTD/svg11.dtd"><svg t="1652342466178" class="icon" viewBox="0 0 1024 1024" version="1.1" xmlns="http://www.w3.org/2000/svg" p-id="10234" xmlns:xlink="http://www.w3.org/1999/xlink" width="200" height="200"><defs><style type="text/css"></style></defs><path d="M219.4 818.17c7.46 9.12 20.13 14.8 38.66 18.68l9.07 17.33 5.05-4.11-2 10.51 12.18 12.85 4.74 4.94c11.49 11.85 20 20 25.63 24.66 18.29 15 59.81 35.52 78.91 31.81 13.75-2 26.42-9.92 37.13-23 17.33-21.09 32.77-63.19 37.92-91l5.59-25.08-85.67-27.22-1.38-2.47-1.18-2.3c-0.42-0.83-0.87-1.76-1.34-2.76l-0.31-0.69a446.91 446.91 0 0 1-163.49 57.1c0.16 0.3 0.32 0.58 0.49 0.75zM463.91 699.21c2.21 1.7 4.18 3.14 5.89 4.3 19.53 13.38 62.78 30.11 81.6 24.58 13.54-3.3 25.51-12.39 35.13-26.45 15.58-22.77 27.59-66.51 30.49-94.88a28.1 28.1 0 0 0-21.81-31.3l-34.93-7.66a451.3 451.3 0 0 1-96.37 131.41zM587.84 495.51c23.37 8.13 62.07 14 77.78 5.84 12.67-5.82 22.69-17 29.44-32.66 11-25.33 14.4-70.56 11.82-99l-1.41-25.94-90.05-2.16-1.23-1.22-1.58-1.66-0.92-1c-0.62-0.7-1.31-1.46-2-2.29l-5.13-6.09h-1.55q2 21.06 2 42.66a450.6 450.6 0 0 1-17.17 123.52zM771.46 115.57l-4.65-25.49-90.28 8.62-2.27-1.7-2-1.67-1.14-1c-0.78-0.68-1.61-1.43-2.48-2.24l-4.57-4.22L639 90.16l-1.74-2c-7.46-8.34-13.8-13-20.73-14.2l-1.61-0.2-1.92-0.22c-12.58-1.11-25.4 5-34.09 16.53l-1.89 2.51-1.46 7.07-2.43-1.08c-13-5.44-27.52-6-39.52-1.88l-15.14 4.65-1.13 3.82a448.33 448.33 0 0 1 59.24 109.14c2.39-0.36 4.85-0.78 7.4-1.29l15.18 12.5 3.15-6 2.33 10.82 16.36 7.15 12.27 5.19 2.79 1.14c10.91 4.48 19.16 7.53 24.81 9.19 22.88 6.73 69.51 9.38 85.78-1.65 11.95-7.3 20.58-19.65 25.4-36 7.74-26.51 5.54-71.86-0.59-99.78z" fill="#C9F4EB" p-id="10235"></path><path d="M397.87 968.24c-30.82 0-72.51-23.54-90-37.89-6.46-5.3-15.27-13.75-27.71-26.58l-0.08-0.08-4.75-4.94-0.12-0.12L263 885.79a25 25 0 0 1-5.72-9.75 22.52 22.52 0 0 1-1.34-2.27l-3.84-7.32c-14-4-30-10.91-41.09-24.45-0.23-0.28-0.45-0.56-0.66-0.85-11.57-15.45-22.79-42.41-10.91-83.32l0.3-1.31c0.08-0.36 0.18-0.71 0.27-1.07l0.33-1.19q0.24-0.87 0.54-1.71l0.29-0.82c0.19-0.52 0.39-1 0.6-1.54l0.65-1.5c0.22-0.52 0.47-1 0.72-1.53a295.6 295.6 0 0 1 17.65-30.23l0.64-0.9 0.77-1c0.24-0.32 0.49-0.63 0.74-0.94l10.11-12.3a25 25 0 0 1 21.95-9l15.31 1.62a78.73 78.73 0 0 1 35 11.73c19.37-8.77 41.19-8 58.41 2.42l1.19 0.7c0.3 0.17 0.59 0.35 0.88 0.53 9.72 6.22 15.78 15.3 19.9 24.37l12.31 4a25 25 0 0 1 15.12 13.47l2 4.41 75.64 24a25 25 0 0 1 16.82 29.27l-5.49 24.65c-5.86 31.13-22.89 77.23-43.1 101.84-14.62 17.77-32.7 28.73-52.33 31.73a51.19 51.19 0 0 1-8.79 0.71z m0-49.94zM316.1 869c10.76 11.1 18.67 18.73 23.49 22.69 7.35 6 19.92 13.41 32 18.79 15.65 7 24.29 8 26.4 7.78 0.34-0.07 0.69-0.12 1-0.17 7.41-1.08 14.61-5.82 21.41-14.08 13.81-16.81 28-54.77 32.65-79.66 0.05-0.3 0.11-0.59 0.18-0.89l0.61-2.74L390 800.43a25 25 0 0 1-14.25-11.62l-1.38-2.47c-0.14-0.25-0.28-0.51-0.41-0.77l-1.18-2.29-0.13-0.25-0.34-0.69-13.29-4.26a25 25 0 0 1-16.18-16.2c-2.19-6.87-3.74-9.4-4.29-10.16l-0.15-0.09-0.46-0.27c-3-1.81-7.37-1.7-11.7 0.2l-0.56 0.81a25 25 0 0 1-39.17 2.52c-5.46-6.06-13.22-10.15-20.27-10.66l-0.82-0.07-2.3-0.25-1.24 1.52a243.43 243.43 0 0 0-13.67 23.43l-0.2 0.86c-0.11 0.52-0.25 1-0.4 1.53-5 16.91-4.21 30.17 2.39 39.43 2.44 2.69 8.63 6.45 24.14 9.7a25 25 0 0 1 17 12.88l0.73 1.4a25 25 0 0 1 16.11 25.93z m22.28-117.56zM553.62 762.12c-30.26 0-69.49-18-86.95-30-6.41-4.38-15.36-11.54-27.33-21.89l-2.43-2.09-0.15-0.14-7.84-6.87-0.14-0.13-10.7-9.53a3359.32 3359.32 0 0 0-8-11.36l-4.39-6.93c-14.33-2.71-30.91-8.19-43.15-20.79-0.26-0.27-0.52-0.55-0.77-0.83-12.41-14-25.66-39.16-18.26-79.72a3.4 3.4 0 0 1 0.07-0.34l0.46-2.35 0.45-3.27a25.18 25.18 0 0 1 1.68-6.14l2.39-5.76a1.67 1.67 0 0 1 0.08-0.2c3.78-8.88 7.61-17 11.39-24l0.09-0.17 1.74-3.2c0.22-0.39 0.44-0.78 0.68-1.17l0.67-1.07c0.2-0.34 0.41-0.66 0.63-1l9-13.19a25 25 0 0 1 20.92-10.88l18.12 0.21h0.46a78.6 78.6 0 0 1 32.89 8.45c17.68-10.14 38.1-11.82 55.8-4.36 0.25 0.1 0.49 0.21 0.72 0.32l1.8 0.82 0.29 0.14 1.47 0.7c0.27 0.12 0.54 0.26 0.8 0.39 10.56 5.49 17.32 14.13 22.06 22.65l12.47 2.77a25 25 0 0 1 16.45 12.29l2.26 4.09L611.57 559a53.37 53.37 0 0 1 41.28 58.65c-3.31 31.74-16.54 79.55-34.69 106.07-13 19.06-30.09 31.67-49.35 36.5a57.07 57.07 0 0 1-15.19 1.9z m-84-91.75l2.36 2c12.94 11.18 19.58 16.21 22.88 18.46 7.86 5.38 21 11.6 33.58 15.87 16.23 5.51 24.93 5.72 27 5.32l1-0.26c7.38-1.8 14.25-7.27 20.41-16.27 12.48-18.25 23.65-57.8 26.25-83.31 0-0.3 0.06-0.59 0.11-0.89a3.12 3.12 0 0 0-2.41-3.45l-62.61-13.74a25 25 0 0 1-15.31-10.36l-1-1.43-0.39-0.59-1.49-2.34c-0.12-0.19-0.24-0.38-0.35-0.57l-0.73-1.2-13.5-3A25 25 0 0 1 487.87 560l-1-2.3c-2.21-5-3.67-7-4.21-7.68l-1.26-0.58c-3.08-1.18-7.16-0.55-11.08 1.65l-0.66 1.14a25 25 0 0 1-38.39 6.28l-1.83-1.64a31.74 31.74 0 0 0-18.38-7.52h-4.48l-1.15 1.68-1.37 2.51c-3.05 5.71-6.21 12.38-9.37 19.82l-1.13 2.7-0.11 0.79c-0.06 0.46-0.14 0.92-0.23 1.38l-0.56 2.85c-2.93 16.26-0.9 28.67 6.06 36.89 2.66 2.47 9.14 5.65 24.81 7.45a25 25 0 0 1 18.27 11.46l0.87 1.37a25 25 0 0 1 18.15 24.46l1.13 1z" fill="#10A38B" p-id="10236"></path><path d="M469.73 720.14a29.89 29.89 0 0 1-16.89-5.21l-2.92-2a30 30 0 0 1-7.6-42.09l0.28-0.41a30 30 0 0 1 26.75-12.61h0.73a30.39 30.39 0 0 1 5.63 0.89 29.89 29.89 0 0 1 18.09 13.3l1.28 2a30 30 0 0 1-25.35 46.06z" fill="#10A38B" p-id="10237"></path><path d="M653.59 538.27c-26.47 0-56.22-7.83-71.68-14.52-7.14-3.09-17.28-8.41-31-16.27l-2.81-1.61-0.16-0.09-9-5.25-0.18-0.1-12.31-7.32a24.92 24.92 0 0 1-8.23-7.91c-0.62-0.54-1.22-1.12-1.79-1.72l-5.63-6c-14.55 0.08-31.89-2.13-46.32-12.16-0.31-0.22-0.62-0.44-0.92-0.67-14.85-11.36-32.66-33.56-33.13-74.8v-2.72l-0.17-3.36a24.89 24.89 0 0 1 0.47-6.27l1.25-6.11a0.36 0.36 0 0 1 0-0.1c1.79-8.62 4-17.29 6.57-25.76l0.09-0.27 1.09-3.47c0.15-0.45 0.3-0.9 0.47-1.35l0.45-1.19c0.14-0.35 0.28-0.7 0.43-1l6.34-14.66a25 25 0 0 1 18.44-14.67l17.84-3.27 0.47-0.08a78.87 78.87 0 0 1 33.9 2c15.39-13.32 35.11-18.88 53.93-14.93 0.28 0 0.57 0.12 0.85 0.19l1.93 0.47h0.11l1.58 0.4c0.32 0.08 0.65 0.17 1 0.27 11.41 3.36 19.7 10.56 26 18l12.79 0.35a25 25 0 0 1 18.45 8.88l3.05 3.62 79.35 1.91a25 25 0 0 1 24.37 23.64l1.38 25.5c2.8 31.78-1.07 81.18-13.81 110.66-9.16 21.2-23.49 36.83-41.48 45.25-9.29 4.69-21.26 6.49-33.98 6.49zM573 462.53l2.72 1.56c11.94 6.83 20.69 11.47 26 13.78 8.69 3.76 22.81 7.36 36 9.15 17 2.31 25.55 0.85 27.52 0.07l0.93-0.45c6.91-3.18 12.61-9.86 16.93-19.87 8.78-20.3 12.19-61.26 9.87-86.78 0-0.3-0.05-0.6-0.06-0.9l-0.16-2.86-66.94-1.61a25 25 0 0 1-17-7.22l-1.23-1.22-0.53-0.54-1.55-1.64-0.2-0.21-0.91-1-0.4-0.44-0.25-0.28-13.83-0.38a25 25 0 0 1-20-11l-1.41-2.07c-3.12-4.52-4.93-6.22-5.59-6.75l-1.39-0.34c-3.23-0.56-7.11 0.84-10.53 3.74l-0.41 1.23a25 25 0 0 1-36.51 13.5l-2.13-1.27c-6.12-3.38-13.37-4.83-19.5-3.88l-4.41 0.81-0.81 1.87-0.84 2.64c-2.11 7-3.94 14.16-5.43 21.27l-0.59 2.94v5.04c0.21 16.54 4.58 28.34 13 35.1 3.1 1.91 10.08 3.79 25.79 2.56a25 25 0 0 1 20.13 7.77l1.12 1.18a24.57 24.57 0 0 1 4.29 0.75 25 25 0 0 1 18.2 19.82l1.27 0.75z m92.1 24.62z" fill="#FFA143" p-id="10238"></path><path d="M718.48 291.91c-20.76 0-41.37-3.3-53.7-6.92-6.61-1.94-15.53-5.23-27.27-10.05l-2.8-1.15-0.22-0.1-12.28-5.19-0.27-0.12-16.31-7.12a24.83 24.83 0 0 1-9.1-6.8 22.49 22.49 0 0 1-2.26-1.65l-6.42-5.29c-14.56 1.85-32.15 1.77-47.76-6.42-0.34-0.18-0.67-0.36-1-0.56-16.19-9.46-36.68-29.33-42.33-70.18v-0.29l-0.31-2.43-0.59-3.35a24.52 24.52 0 0 1-0.31-6.29l0.48-6.23v-0.11c0.72-8.78 1.85-17.66 3.35-26.39 0-0.12 0.05-0.25 0.07-0.38l0.68-3.59c0.08-0.44 0.18-0.87 0.28-1.3l0.31-1.24c0.09-0.37 0.19-0.73 0.29-1.1l4.52-15.37a25 25 0 0 1 16.64-16.85L537 80.9a79.15 79.15 0 0 1 37.16-2.9c13.74-15.15 32.78-23.05 52.08-21.34l0.81 0.09 3.55 0.43 1.08 0.16c11.73 2 20.88 8.16 28.06 14.83l13-1.21a25 25 0 0 1 19.28 6.54l3.6 3.33 79.79-7.61a25 25 0 0 1 27 20.4l4.59 25.04c6.79 31.28 9.09 80.89 0 111.74-6.54 22.2-18.94 39.48-35.9 50-13.01 8.53-32.88 11.51-52.62 11.51z m-64.63-64.32l2.67 1.1c12.42 5.1 19 7.35 22.36 8.33 9.21 2.71 23.81 4.59 37.2 4.8 17.3 0.27 25.73-2.22 27.6-3.24l0.88-0.56c6.52-4 11.38-11.29 14.45-21.74 6.24-21.19 4.53-62.27-1-87.35-0.07-0.29-0.12-0.59-0.18-0.88l-0.53-2.9-67.42 6.44a25 25 0 0 1-17.66-5.1l-2.22-1.75c-0.25-0.19-0.49-0.39-0.73-0.59l-2-1.67-0.37-0.31-0.49-0.42-14.08 1.3a25 25 0 0 1-21.15-8.46l-1.63-1.86c-3.78-4.22-5.85-5.69-6.57-6.13l-1.4-0.17c-3.37-0.19-7.13 1.67-10.21 5l-0.27 1.31a25 25 0 0 1-34.61 17.8l-2.16-0.95c-7.17-3-15.21-3.41-21.55-1.23l-0.77 0.25-2.3 0.71-0.57 2-0.54 2.68c-1.23 7.19-2.16 14.49-2.75 21.71l-0.24 3 0.15 0.83c0.07 0.41 0.13 0.82 0.19 1.23l0.36 2.9c2.29 16.42 8.16 27.64 17.44 33.37 3.36 1.55 10.63 2.59 26.34-0.54a25 25 0 0 1 20.78 5.22l1 0.85a25.06 25.06 0 0 1 25.41 18l4.5 2z m89.72 11.07z m0.16-0.1zM622.66 106.43z" fill="#10A38B" p-id="10239"></path></svg>