<?xml version="1.0" standalone="no"?><!DOCTYPE svg PUBLIC "-//W3C//DTD SVG 1.1//EN" "http://www.w3.org/Graphics/SVG/1.1/DTD/svg11.dtd"><svg t="1652342375394" class="icon" viewBox="0 0 1024 1024" version="1.1" xmlns="http://www.w3.org/2000/svg" p-id="4661" xmlns:xlink="http://www.w3.org/1999/xlink" width="200" height="200"><defs><style type="text/css"></style></defs><path d="M851.18 129.75H544.11c6.47 30.4 9.89 87.92 9.89 120.25 0 248.53-201.47 450-450 450q-11 0-22-0.53v16.35a60 60 0 0 0 60 60h709.18a60.18 60.18 0 0 0 60-60V189.75a60.18 60.18 0 0 0-60-60z" fill="#C9F4EB" p-id="4662"></path><path d="M627.29 903H396.71a25 25 0 0 1 0-50h230.58a25 25 0 0 1 0 50z" fill="#10A38B" p-id="4663"></path><path d="M482 652a25 25 0 0 1-22.75-14.64l-118.38-260.1L296 541.22a25 25 0 0 1-24.12 18.4h-157a25 25 0 0 1 0-50h138l58.01-212.22a25 25 0 0 1 46.86-3.76l124.13 272.75L570 370.78A25 25 0 0 1 592.8 356h0.2a25 25 0 0 1 22.77 15l58.62 135H903a25 25 0 0 1 0 50H658a25 25 0 0 1-22.93-15l-42.68-98.16-87.6 194.46a25 25 0 0 1-22.74 14.7z" fill="#FFA143" p-id="4664"></path><path d="M826.13 805H197A125.14 125.14 0 0 1 72 680V233.93a125.14 125.14 0 0 1 125-125h629.13a125.14 125.14 0 0 1 125 125V680a125.14 125.14 0 0 1-125 125zM197 158.93a75.08 75.08 0 0 0-75 75V680a75.09 75.09 0 0 0 75 75h629.13a75.09 75.09 0 0 0 75-75V233.93a75.08 75.08 0 0 0-75-75z" fill="#10A38B" p-id="4665"></path></svg>