<?xml version="1.0" standalone="no"?><!DOCTYPE svg PUBLIC "-//W3C//DTD SVG 1.1//EN" "http://www.w3.org/Graphics/SVG/1.1/DTD/svg11.dtd"><svg t="1652342464355" class="icon" viewBox="0 0 1024 1024" version="1.1" xmlns="http://www.w3.org/2000/svg" p-id="10089" xmlns:xlink="http://www.w3.org/1999/xlink" width="200" height="200"><defs><style type="text/css"></style></defs><path d="M664.71 244.5c0 18.69-12.25 36.24-33.75 51.5v6c0 248.53-201.47 450-450 450a453.76 453.76 0 0 1-70.79-5.54 44.79 44.79 0 0 0 0.44 4.76v0.28c8.55 55.8 138.88 112.5 283 112.5s261.94-44.2 270.5-100h1V244.5z" fill="#C9F4EB" p-id="10090"></path><path d="M397.7 377c-73.6 0-149.32-14.38-207.75-39.47C125 309.64 89.18 272.51 89.18 233c0-27.82 17.91-66.52 103.24-92.93C246.71 123.26 319.62 114 397.7 114c75.44 0 146.75 11.7 200.78 32.93 27.81 10.93 50 24 65.95 38.81 24.2 22.48 29.28 44.91 29.28 59.76s-5.08 37.29-29.28 59.77c-15.95 14.82-38.14 27.88-65.95 38.81C544.45 365.31 473.14 377 397.7 377z m0-213c-73.21 0-140.86 8.47-190.5 23.83-50.2 15.54-68 34-68 45.17 0 14.1 21.8 37.68 70.49 58.59 52.43 22.51 121 35.41 188 35.41 69.33 0 134.14-10.46 182.49-29.46 46.83-18.4 63.52-39 63.52-52s-16.69-33.63-63.52-52C531.84 174.47 467 164 397.7 164z" fill="#10A38B" p-id="10091"></path><path d="M395 309.51c-41.85 0-85-5.33-118.34-14.63-17.13-4.78-31.07-10.39-41.44-16.68C214.4 265.59 210 251 210 240.93c0-10.6 4.66-25.59 26.85-36.79 10.35-5.22 23.94-9.48 41.53-13 30.88-6.21 72.28-9.63 116.55-9.63 42.86 0 83.45 4.33 114.29 12.2 16.41 4.19 29.7 9.31 39.49 15.22 19.92 12 24.11 26.53 24.11 36.58s-4.19 24.58-24.11 36.59c-9.79 5.91-23.08 11-39.49 15.22-30.8 7.86-71.39 12.19-114.22 12.19z m-117.84-66.84a225.78 225.78 0 0 0 24.64 7c27.56 6.33 60.65 9.82 93.17 9.82s64.51-2.8 89.75-7.89a201.09 201.09 0 0 0 23.69-6.12 203.35 203.35 0 0 0-23.69-6.11c-25.24-5.09-57.11-7.89-89.75-7.89-34.22 0-67.38 2.23-93.38 6.29-10.18 1.61-18.18 3.29-24.43 4.9z m248.28 10.84z" fill="#10A38B" p-id="10092"></path><path d="M397.7 890c-71.56 0-143.23-13.2-201.81-37.19-61.57-25.2-98.95-58.72-105.57-94.57a24.8 24.8 0 0 1-0.59-3.78 65.4 65.4 0 0 1-0.08-16.29V239.22a25 25 0 0 1 49.74-3.63c2.09 14.31 26.16 37.74 75.21 57.86 52 21.33 118.71 33.55 183.1 33.55 69.33 0 134.14-10.46 182.49-29.46 46.83-18.4 63.52-39 63.52-52a25 25 0 0 1 25-25h0.47a25 25 0 0 1 25 25V765a24.91 24.91 0 0 1-3 11.91c-9.21 33.43-43.1 61.81-98.68 82.45C539.28 879.12 470.1 890 397.7 890zM139.37 748.48a2 2 0 0 1 0 0.24c2.19 14.31 26.37 37.74 75.42 57.82C266.78 827.81 333.43 840 397.7 840c66.61 0 129.6-9.77 177.38-27.51 47.34-17.58 66.37-38 68.4-51.27a25.29 25.29 0 0 1 0.7-3.18V321c-12.9 8.48-28.19 16.21-45.7 23.09C544.45 365.31 473.14 377 397.7 377c-71.7 0-143.46-13.24-202.08-37.29-21.8-8.94-40.55-18.92-56-29.68v429.76a24.39 24.39 0 0 1-0.26 3.62 17.87 17.87 0 0 0-0.21 2.59 18.91 18.91 0 0 0 0.22 2.48z" fill="#10A38B" p-id="10093"></path><path d="M876.18 908.29a50.14 50.14 0 0 1-33.91-13.22l-188.49-140a25 25 0 0 1-10.1-20l-1.23-510a25 25 0 0 1 40-20.06l195.72 146.85a26 26 0 0 1 2.64 2.28 151 151 0 0 1 44.76 107.37l1 396.33a50.37 50.37 0 0 1-50.35 50.45z m0.08-49.91z m-182.61-136l179.64 133.44a24.58 24.58 0 0 1 2.73 2.36l0.14 0.12a1 1 0 0 0 0.37-0.15V858l-1-396.34a101.32 101.32 0 0 0-28.88-70.88l-154.08-115.7z m182.86 135.89z" fill="#10A38B" p-id="10094"></path><path d="M406.19 621.17c-49.95 0-94.07-8.28-126.17-14.31-5.12-1-10-1.87-14.55-2.69a25 25 0 1 1 8.84-49.17c4.69 0.85 9.68 1.78 14.94 2.77C345.31 568.25 430 584.15 516.43 553a25 25 0 0 1 16.94 47.05c-43.97 15.87-87.43 21.12-127.18 21.12z" fill="#FFA143" p-id="10095"></path><path d="M400 735a25 25 0 0 1-25-25V482a25 25 0 0 1 50 0v228a25 25 0 0 1-25 25z" fill="#FFA143" p-id="10096"></path></svg>