<?xml version="1.0" standalone="no"?><!DOCTYPE svg PUBLIC "-//W3C//DTD SVG 1.1//EN" "http://www.w3.org/Graphics/SVG/1.1/DTD/svg11.dtd"><svg t="1652342434365" class="icon" viewBox="0 0 1024 1024" version="1.1" xmlns="http://www.w3.org/2000/svg" p-id="8228" xmlns:xlink="http://www.w3.org/1999/xlink" width="200" height="200"><defs><style type="text/css"></style></defs><path d="M685 393c0-144.37 44.36-262.35 100.29-270.54H520c-0.21 205.64-138.36 379-326.9 432.48C211.31 617 239.71 658.56 272 663.51v1h519.5V664C732.68 664 685 542.69 685 393z" fill="#C9F4EB" p-id="8229"></path><path d="M800.5 690c-14.86 0-37.29-5.08-59.77-29.28-14.82-16-27.88-38.14-38.81-66C680.69 540.76 669 469.46 669 394s11.69-146.74 32.92-200.78c10.93-27.81 24-50 38.81-65.95C763.21 103.08 785.64 98 800.5 98s37.29 5.08 59.77 29.28c14.82 15.95 27.88 38.14 38.81 65.95C920.31 247.27 932 318.57 932 394s-11.69 146.75-32.92 200.78c-10.93 27.82-24 50-38.81 66C837.79 685 815.36 690 800.5 690z m0-542c-13.09 0-33.63 16.69-52 63.52C729.46 259.87 719 324.68 719 394s10.46 134.15 29.46 182.5c18.41 46.83 38.95 63.52 52 63.52s33.63-16.69 52-63.52C871.54 528.16 882 463.35 882 394s-10.46-134.14-29.46-182.49C834.13 164.69 813.59 148 800.5 148z" fill="#10A38B" p-id="8230"></path><path d="M800.5 690.5H281a24.91 24.91 0 0 1-11.91-3c-33.43-9.21-61.81-43.1-82.45-98.68C166.88 535.6 156 466.42 156 394s10.88-141.58 30.64-194.79c21.91-59 52.54-93.55 88.67-100.1a25.41 25.41 0 0 1 3.73-0.57 65.86 65.86 0 0 1 16.3-0.08h499a25 25 0 0 1 3.62 49.74c-13.25 1.94-33.69 20.87-51.31 68.19C728.8 264.2 719 327.28 719 394c0 69.34 10.46 134.15 29.46 182.5 18.41 46.83 38.95 63.52 52 63.52a25 25 0 0 1 25 25v0.47a25 25 0 0 1-24.96 25.01z m-512.5-50h437c-8.48-12.9-16.21-28.19-23.1-45.71C680.69 540.76 669 469.46 669 394c0-72.53 10.92-141.81 30.74-195.06 7.29-19.57 15.53-36.44 24.62-50.48H293.71a25.82 25.82 0 0 1-3.62-0.26 16.08 16.08 0 0 0-5 0h-0.26c-13.26 2-33.7 21.07-51.28 68.4C215.77 264.41 206 327.4 206 394s9.77 129.61 27.51 177.39c17.58 47.33 38 66.37 51.28 68.4a25.53 25.53 0 0 1 3.21 0.71z" fill="#10A38B" p-id="8231"></path><path d="M143 919.85a50.3 50.3 0 0 1-35.65-85.79l185.89-186.7a25 25 0 0 1 17.7-7.36l510-1.24h0.06a25 25 0 0 1 17.71 42.64L646.87 874.13a151.1 151.1 0 0 1-107.37 44.76l-396.34 1z m-0.19-50h0.19l396.34-1a101.44 101.44 0 0 0 72.06-30l149.32-149.94L321.41 690 142.83 869.34l-0.13 0.14a1.69 1.69 0 0 0 0.15 0.37z" fill="#10A38B" p-id="8232"></path><path d="M591.44 529.22a25 25 0 0 1-23.52-16.54c-35.72-99.2-17.6-195.69-6.78-253.34 1-5.12 1.88-10 2.7-14.55a25 25 0 1 1 49.21 8.83c-0.84 4.7-1.78 9.69-2.77 14.95-10.52 56.06-26.43 140.77 4.68 227.18a25 25 0 0 1-23.52 33.47z" fill="#FFA143" p-id="8233"></path></svg>