<?xml version="1.0" standalone="no"?><!DOCTYPE svg PUBLIC "-//W3C//DTD SVG 1.1//EN" "http://www.w3.org/Graphics/SVG/1.1/DTD/svg11.dtd"><svg t="1652342452031" class="icon" viewBox="0 0 1024 1024" version="1.1" xmlns="http://www.w3.org/2000/svg" p-id="9228" xmlns:xlink="http://www.w3.org/1999/xlink" width="200" height="200"><defs><style type="text/css"></style></defs><path d="M641.24 238c-4.88 230.17-160.06 423.35-371.35 485.35A310.22 310.22 0 0 0 501.67 827c171.77 0 311-139.24 311-311 0.01-121.59-69.76-226.85-171.43-278z" fill="#C9F4EB" p-id="9229"></path><path d="M286.07 728.06a110 110 0 0 1-37.51-6.63 25 25 0 1 1 17-47 60 60 0 1 0-36-76.84 25 25 0 1 1-47-17 109.93 109.93 0 1 1 103.5 147.5z" fill="#10A38B" p-id="9230"></path><path d="M372.56 813.28A25 25 0 0 1 356.67 769 31 31 0 0 0 337 714a25 25 0 0 1 0-50 81 81 0 0 1 51.42 143.59 24.91 24.91 0 0 1-15.86 5.69zM705.39 754.12a24.9 24.9 0 0 1-15.76-5.61 81 81 0 0 1 102.19-125.7 25 25 0 0 1-31.54 38.8 31 31 0 1 0-39.11 48.11 25 25 0 0 1-15.78 44.4z" fill="#10A38B" p-id="9231"></path><path d="M777.92 545.93a90.47 90.47 0 1 1 40.7-171.35 25 25 0 1 1-22.4 44.7 40.45 40.45 0 1 0 11.4 63.84 25 25 0 1 1 36.51 34.16 90.86 90.86 0 0 1-66.21 28.65z" fill="#FFA143" p-id="9232"></path><path d="M511.5 862a349.42 349.42 0 1 1 136.44-27.55A348.4 348.4 0 0 1 511.5 862z m0-651C345.8 211 211 345.8 211 511.5S345.8 812 511.5 812 812 677.2 812 511.5 677.2 211 511.5 211z" fill="#10A38B" p-id="9233"></path><path d="M479 470a87 87 0 1 1 87-87 87.1 87.1 0 0 1-87 87z m0-124a37 37 0 1 0 37 37 37 37 0 0 0-37-37zM464.36 952.55h-0.23a10.88 10.88 0 0 1-9.6-12.26l11.82-88.19c5.73 0.77 11.57 1.4 17.35 1.88l-7.33 88.68a10.89 10.89 0 0 1-12.01 9.89z m132.22-16.67l-17.27-87.28c5.68-1.12 11.4-2.41 17-3.82L618 931.07a10.9 10.9 0 0 1-8.17 13.28h-0.22a10.88 10.88 0 0 1-13.03-8.47z m-272.72-22.79l-0.25-0.12a10.89 10.89 0 0 1-5.08-14.73l40-79.48c5.19 2.6 10.5 5.11 15.8 7.44l-35.88 81.43a10.87 10.87 0 0 1-14.59 5.46z m405.79-27.56l-44.85-76.86c5-2.92 10-6 14.83-9.16L748.32 874a10.87 10.87 0 0 1-3.38 15.2l-0.19 0.12a10.87 10.87 0 0 1-15.1-3.79zM204 830l-0.17-0.17a10.87 10.87 0 0 1 0-15.56l63.61-62.24c4.06 4.14 8.27 8.24 12.53 12.17l-60.46 65.4a10.88 10.88 0 0 1-15.51 0.4z m635-35.28l-67.3-58.23c3.79-4.38 7.52-8.92 11.09-13.49L853 777.74a10.88 10.88 0 0 1 1.72 15.47l-0.16 0.19a10.88 10.88 0 0 1-15.56 1.32z m-721.58-82l-0.1-0.2a10.87 10.87 0 0 1 5-14.73l80.35-38.26c2.49 5.22 5.14 10.44 7.89 15.53l-78.3 42.3a10.88 10.88 0 0 1-14.83-4.68z m795.64-39.39l-82.53-33.17c2.17-5.38 4.22-10.89 6.1-16.37l84.12 28.88a10.92 10.92 0 0 1 6.69 14.13l-0.08 0.21a10.92 10.92 0 0 1-14.29 6.28zM73.81 573.46v-0.25a10.86 10.86 0 0 1 9.56-12.29l88.43-9.9c0.65 5.76 1.45 11.57 2.39 17.28l-87.85 14.39a10.87 10.87 0 0 1-12.53-9.23z m869.76-39.15l-88.88-4.45c0.29-5.79 0.43-11.67 0.43-17.48h89A10.87 10.87 0 0 1 955 523.51v0.22a10.86 10.86 0 0 1-11.43 10.58z m-769.22-79L86.6 440.58a10.9 10.9 0 0 1-8.89-12.81v-0.22a10.9 10.9 0 0 1 13-8.55l86.88 19.16c-1.17 5.65-2.28 11.41-3.24 17.12z m667.83-36.61c-1.58-5.56-3.32-11.16-5.18-16.64l84.24-28.61a10.88 10.88 0 0 1 13.9 7.07l0.07 0.22a10.89 10.89 0 0 1-7.43 13.71z m-631-70.05L133 306.08a10.88 10.88 0 0 1-4.21-15l0.12-0.21a10.88 10.88 0 0 1 15.15-3.87l75.86 46.5c-3.03 4.98-5.92 10.06-8.75 15.15z m582.69-31.9c-3.31-4.75-6.78-9.48-10.33-14.05l70.35-54.5a10.87 10.87 0 0 1 15.42 2.16l0.14 0.18a10.88 10.88 0 0 1-2.56 15.36z m-513-57.08l-60.15-65.6a10.87 10.87 0 0 1 0.87-15.53l0.18-0.16a10.87 10.87 0 0 1 15.51 1.26L294 248.2c-4.48 3.69-8.91 7.55-13.18 11.47zM715 235.87c-4.67-3.43-9.5-6.79-14.34-10l49-74.32a10.88 10.88 0 0 1 15.29-3l0.21 0.15a10.87 10.87 0 0 1 2.55 15.36z m-339.56-37.81l-35.59-81.57a10.85 10.85 0 0 1 5.86-14.41l0.21-0.08a10.86 10.86 0 0 1 14.25 6.23l31.38 83.28c-5.4 2.04-10.82 4.24-16.11 6.55zM614.21 185a350.97 350.97 0 0 0-16.77-4.74l22-86.21A10.89 10.89 0 0 1 633 86.26l0.22 0.06A10.88 10.88 0 0 1 640.6 100z m-129.36-14.29l-7-88.71a10.88 10.88 0 0 1 10.25-11.72h0.23a10.88 10.88 0 0 1 11.45 10.55l2.56 89c-5.85 0.11-11.72 0.42-17.49 0.88z" fill="#10A38B" p-id="9234"></path></svg>