<?xml version="1.0" standalone="no"?><!DOCTYPE svg PUBLIC "-//W3C//DTD SVG 1.1//EN" "http://www.w3.org/Graphics/SVG/1.1/DTD/svg11.dtd"><svg t="1652342383052" class="icon" viewBox="0 0 1024 1024" version="1.1" xmlns="http://www.w3.org/2000/svg" p-id="5091" xmlns:xlink="http://www.w3.org/1999/xlink" width="200" height="200"><defs><style type="text/css"></style></defs><path d="M729 119.4a551.23 551.23 0 0 1 9 99.6c0 302.65-245.35 548-548 548a553.45 553.45 0 0 1-60.16-3.28V885a60.18 60.18 0 0 0 60 60H766.5V175a60.2 60.2 0 0 0-37.5-55.6z" fill="#C9F4EB" p-id="5092"></path><path d="M614.28 359h-333a25 25 0 0 1 0-50h333a25 25 0 0 1 0 50zM614.28 544h-333a25 25 0 0 1 0-50h333a25 25 0 0 1 0 50z" fill="#10A38B" p-id="5093"></path><path d="M408.28 729h-127a25 25 0 0 1 0-50h127a25 25 0 0 1 0 50z" fill="#FFA143" p-id="5094"></path><path d="M766.11 953H229.45a125.14 125.14 0 0 1-125-125V198a125.14 125.14 0 0 1 125-125h436.66a125.14 125.14 0 0 1 125 125v730a25 25 0 0 1-25 25zM229.45 123a75.08 75.08 0 0 0-75 75v630a75.08 75.08 0 0 0 75 75h511.66V198a75.08 75.08 0 0 0-75-75z" fill="#10A38B" p-id="5095"></path><path d="M788.47 953h-20a25 25 0 0 1-25-25V246.79a25 25 0 0 1 25-25h20a125.15 125.15 0 0 1 125 125V828a125.14 125.14 0 0 1-125 125z m5-681v630.84a75.11 75.11 0 0 0 70-74.84V346.79a75.1 75.1 0 0 0-70-74.79z" fill="#10A38B" p-id="5096"></path></svg>