<?xml version="1.0" standalone="no"?><!DOCTYPE svg PUBLIC "-//W3C//DTD SVG 1.1//EN" "http://www.w3.org/Graphics/SVG/1.1/DTD/svg11.dtd"><svg t="1652342415405" class="icon" viewBox="0 0 1024 1024" version="1.1" xmlns="http://www.w3.org/2000/svg" p-id="7092" xmlns:xlink="http://www.w3.org/1999/xlink" width="200" height="200"><defs><style type="text/css"></style></defs><path d="M856 333h-59.94C773 603.58 546.05 816 269.5 816A527.24 527.24 0 0 1 81 781.39V787a60.18 60.18 0 0 0 60 60h715a60.18 60.18 0 0 0 60-60V393a60.18 60.18 0 0 0-60-60z" fill="#C9F4EB" p-id="7093"></path><path d="M927 369H111.75a25 25 0 0 1 0-50H927a25 25 0 0 1 0 50z" fill="#10A38B" p-id="7094"></path><path d="M569.79 748H225a30 30 0 0 1 0-60h344.79a30 30 0 0 1 0 60zM668 748h-2.84a30 30 0 1 1 0-60H668a30 30 0 0 1 0 60z" fill="#FFA143" p-id="7095"></path><path d="M832 860H197A125.14 125.14 0 0 1 72 735V263a125.14 125.14 0 0 1 125-125h635a125.14 125.14 0 0 1 125 125v472a125.14 125.14 0 0 1-125 125zM197 188a75.09 75.09 0 0 0-75 75v472a75.09 75.09 0 0 0 75 75h635a75.09 75.09 0 0 0 75-75V263a75.09 75.09 0 0 0-75-75z" fill="#10A38B" p-id="7096"></path></svg>