<?xml version="1.0" standalone="no"?><!DOCTYPE svg PUBLIC "-//W3C//DTD SVG 1.1//EN" "http://www.w3.org/Graphics/SVG/1.1/DTD/svg11.dtd"><svg t="1652342436280" class="icon" viewBox="0 0 1024 1024" version="1.1" xmlns="http://www.w3.org/2000/svg" p-id="8371" xmlns:xlink="http://www.w3.org/1999/xlink" width="200" height="200"><defs><style type="text/css"></style></defs><path d="M706.58 810.17c-28.86 0-60.84-7.72-90.66-22.74-32-16.09-55.54-37.91-67.64-62-5.57 0.51-11.17 0.76-16.76 0.76A182.62 182.62 0 0 1 438 700.72a184.29 184.29 0 0 1-191.89-2.94 184.67 184.67 0 0 1-60.83-63.08q-5.06-1.34-10-3A154.57 154.57 0 0 1 118.34 373a107.88 107.88 0 0 1 125.52-123.3 154.49 154.49 0 0 1 258.24-35.24 154.85 154.85 0 0 1 119.9-2.09 154 154 0 0 1 116.1-52.53c81.49 0 148.44 63.39 154.13 143.46a154.7 154.7 0 0 1 43.11 135c12.21 24.91 21.59 51.86 16.12 81.23-17.55 94.13-78.17 105.95-114.75 110.49C851.3 691.08 831 764 760.14 799c-15.14 7.48-33.63 11.16-53.56 11.17zM565 672.69a25 25 0 0 1 24.6 20.54c3.07 16.94 21.79 35.92 48.86 49.55 35.74 18 76.7 22.67 99.6 11.37 54.08-26.7 61.8-83.71 46.09-125.37a39.26 39.26 0 0 1-2.05-17.09c0-0.3 0-0.6 0.05-0.89a25 25 0 0 1 18-25.45c7.78-2.23 16.16-3.22 25-4.26 33.61-4 65.36-7.7 77.1-70.69 3.46-18.53-6.11-39.13-15.36-57a25 25 0 0 1-2.15-17.14 104.71 104.71 0 0 0-33.52-102.83 25 25 0 0 1-8.65-18.91v-0.3a104.52 104.52 0 0 0-192.16-56.82 25 25 0 0 1-33.51 8 104.63 104.63 0 0 0-108.72 2.4 25 25 0 0 1-34.81-8A104.55 104.55 0 0 0 283.32 287a25 25 0 0 1-34.48 16.23 57.82 57.82 0 0 0-78.84 70.9 25 25 0 0 1-8.64 27.87 104.53 104.53 0 0 0 29.86 182.32 106.52 106.52 0 0 0 15 3.85 25 25 0 0 1 18 13.49 134.19 134.19 0 0 0 199 49 25 25 0 0 1 29.42 0 133.12 133.12 0 0 0 78.83 25.6 135.54 135.54 0 0 0 28.21-3 25 25 0 0 1 5.32-0.57z m217.19-61.34z m0-0.77zM926.85 515z" fill="#10A38B" p-id="8372"></path><path d="M611.61 495q-1.07 0-2.13-0.09a25 25 0 0 1-22.81-27c2.12-25.22 14.29-45.54 33.23-57.14a71.36 71.36 0 0 1 0.12-10.14C621.6 381.87 631 366 645.86 357c12.44-7.52 27.71-9.7 43.41-6.46 22.24-13.53 52.1-14 81.54-0.48A25 25 0 1 1 750 395.48c-16-7.31-30.48-7.2-37.94 0.31a25 25 0 0 1-27.44 5.42c-7.1-3-11.5-2.26-12.84-1.45s-1.81 4.1-1.89 5.06a30.48 30.48 0 0 0 2.11 12.73 25 25 0 0 1-18.72 33.15c-10.09 2-15.74 9.16-16.77 21.41a25 25 0 0 1-24.9 22.89z" fill="#10A38B" p-id="8373"></path><path d="M474.47 600q-1.07 0-2.13-0.09a25 25 0 0 1-22.81-27c2.12-25.22 14.3-45.54 33.23-57.14a71.52 71.52 0 0 1 0.12-10.15c1.58-18.75 11-34.66 25.84-43.64 12.44-7.52 27.71-9.7 43.41-6.46 22.24-13.53 52.1-14 81.55-0.48a25 25 0 1 1-20.86 45.44c-16-7.31-30.48-7.2-37.94 0.31a25 25 0 0 1-27.44 5.42c-7.1-3-11.5-2.26-12.84-1.45s-1.81 4.1-1.89 5.06a30.48 30.48 0 0 0 2.13 12.73 25 25 0 0 1-18.71 33.15c-10.1 2-15.75 9.16-16.78 21.41A25 25 0 0 1 474.47 600zM627.11 442.2a25 25 0 0 1-20.65-10.88c-4.86-7.1-18-22.42-34.37-11.32a25 25 0 0 1-35.32-7.64c-0.57-0.93-1.13-1.8-1.67-2.59-6.64-9.7-14.54-15-22.23-15s-15.59 5.34-22.24 15a25 25 0 1 1-41.24-28.26c16-23.37 39.15-36.78 63.48-36.78 19.38 0 38 8.51 52.87 23.78a67.53 67.53 0 0 1 34.32-0.49c18.61 4.59 35.09 16.71 47.65 35a25 25 0 0 1-20.6 39.14z" fill="#10A38B" p-id="8374"></path><path d="M769.46 592.46a25 25 0 0 1-24.38-19.56c-1.87-8.4-8.33-27.49-27.7-23.29a25 25 0 0 1-29.94-20.23c-0.19-1.06-0.38-2.08-0.59-3-2.56-11.47-7.91-19.36-15.05-22.22s-16.46-0.84-26.23 5.7a25 25 0 0 1-27.79-41.57c23.56-15.75 50-19.59 72.61-10.55 18 7.21 32.11 22 40.24 41.73a67.6 67.6 0 0 1 32 12.3c15.57 11.19 26.36 28.56 31.2 50.25a25 25 0 0 1-24.42 30.46z" fill="#10A38B" p-id="8375"></path><path d="M458.79 489.84a25 25 0 0 1-24.88-23c-1-12.25-6.64-19.46-16.73-21.44a25 25 0 0 1-18.65-33.2 30.33 30.33 0 0 0 2.16-12.72c-0.07-1-0.45-4.19-1.88-5.06s-5.73-1.56-12.85 1.42a25 25 0 0 1-27.42-5.48c-7.44-7.52-22-7.67-37.94-0.39a25 25 0 0 1-20.76-45.49c29.48-13.45 59.33-12.92 81.55 0.66 15.71-3.21 31-1 43.39 6.55 14.82 9 24.21 24.94 25.75 43.7a71.4 71.4 0 0 1 0.1 10.14c18.91 11.65 31 32 33.11 57.22a25 25 0 0 1-22.87 27c-0.7 0.06-1.39 0.09-2.08 0.09z" fill="#FFA143" p-id="8376"></path><path d="M293.61 554.53a25 25 0 0 1-17.4-42.95c18.2-17.63 38.8-28.48 59.58-31.36a74.4 74.4 0 0 1 40.36 5.28c23.47-18.37 49.93-26 74.27-21 24.62 5.06 44.12 22.07 54.9 47.9a25 25 0 0 1-46.14 19.27c-4.34-10.4-10.68-16.52-18.83-18.2-11.52-2.36-26.55 4.11-40.19 17.33-1 0.94-2 2-3 3.08a25 25 0 0 1-34.93 1.37c-12.13-11-32.22-6.17-51.19 12.21a24.91 24.91 0 0 1-17.43 7.07zM704 895a25.07 25.07 0 0 1-6-0.73c-90.37-22.15-128.68-75-144.9-115.37-17.56-43.75-13.21-82.54-13-84.17A25 25 0 0 1 560.81 673c37.11-6.25 69.41-38.14 69.72-38.46a25 25 0 0 1 35.62 35.09c-1.52 1.54-33.17 33.27-76.44 47.53 2.12 32.67 18.75 103.64 120.24 128.52A25 25 0 0 1 704 895z" fill="#10A38B" p-id="8377"></path></svg>