<?xml version="1.0" standalone="no"?><!DOCTYPE svg PUBLIC "-//W3C//DTD SVG 1.1//EN" "http://www.w3.org/Graphics/SVG/1.1/DTD/svg11.dtd"><svg t="1652342406210" class="icon" viewBox="0 0 1024 1024" version="1.1" xmlns="http://www.w3.org/2000/svg" p-id="6523" xmlns:xlink="http://www.w3.org/1999/xlink" width="200" height="200"><defs><style type="text/css"></style></defs><path d="M632.38 205.2A457.27 457.27 0 0 1 635 254c0 218.22-155.33 400.15-361.45 441.28A308.09 308.09 0 0 0 499 793c170.66 0 309-138.34 309-309 0-122.89-71.74-229-175.62-278.8z" fill="#C9F4EB" p-id="6524"></path><path d="M512 846a333 333 0 1 1 130-26.26A331.86 331.86 0 0 1 512 846z m0-618c-156.6 0-284 127.4-284 284s127.4 284 284 284 284-127.4 284-284-127.4-284-284-284z" fill="#10A38B" p-id="6525"></path><path d="M840.15 714.74a84.11 84.11 0 0 1-63.38-28.81 25 25 0 1 1 37.68-32.86 34 34 0 1 0 15.62-54.81 25 25 0 1 1-14.77-47.77 84 84 0 1 1 24.85 164.25zM694.46 896.37a84 84 0 0 1-80.4-107.93A25 25 0 0 1 662 802.66a34 34 0 1 0 54.65-16.17 25 25 0 1 1 32.42-38.06A84 84 0 0 1 701.3 896.1q-3.43 0.27-6.84 0.27zM736 326a25 25 0 0 1 0-50 60 60 0 1 0-60-60 25 25 0 0 1-50 0 110 110 0 1 1 110 110z" fill="#10A38B" p-id="6526"></path><path d="M809 402a25 25 0 0 1 0-50 31 31 0 0 0 0-62 25 25 0 0 1 0-50 81 81 0 0 1 0 162zM251.36 866.6a88.07 88.07 0 0 1-23.51-3.22 87.64 87.64 0 1 1 46.75-168.94 25 25 0 1 1-13.34 48.19A37.65 37.65 0 1 0 287.5 789a25 25 0 0 1 48.19 13.34 87.78 87.78 0 0 1-84.33 64.31zM413.05 240.55a25 25 0 0 1-12.66-3.46 83.07 83.07 0 1 1 113.73-29.46A25 25 0 1 1 471 182.27 33.07 33.07 0 1 0 425.76 194a25 25 0 0 1-12.71 46.55zM179.35 566.91a81 81 0 0 1 0-162 25 25 0 0 1 0 50 31 31 0 0 0 0 62 25 25 0 1 1 0 50z" fill="#10A38B" p-id="6527"></path><path d="M416 647a121 121 0 1 1 121-121 121.14 121.14 0 0 1-121 121z m0-192a71 71 0 1 0 71 71 71.08 71.08 0 0 0-71-71z" fill="#FFA143" p-id="6528"></path></svg>