<?xml version="1.0" standalone="no"?><!DOCTYPE svg PUBLIC "-//W3C//DTD SVG 1.1//EN" "http://www.w3.org/Graphics/SVG/1.1/DTD/svg11.dtd"><svg t="1652342380571" class="icon" viewBox="0 0 1024 1024" version="1.1" xmlns="http://www.w3.org/2000/svg" p-id="4948" xmlns:xlink="http://www.w3.org/1999/xlink" width="200" height="200"><defs><style type="text/css"></style></defs><path d="M614.72 343.64A452.26 452.26 0 0 1 624 435c0 203.71-135.35 408.21-321 469.38-7.53 2.49-5.73 13.62 2.2 13.62H645a100 100 0 0 0 100-100V545.13c0-89.29-53.64-166.67-130.28-201.49z" fill="#C9F4EB" p-id="4949"></path><path d="M678.8 953h-338a125.14 125.14 0 0 1-125-125V555.13c0-65.5 25.67-127.24 72.28-173.85S396.43 309 461.93 309h95.74c65.5 0 127.24 25.67 173.85 72.28s72.28 108.35 72.28 173.85V828a125.14 125.14 0 0 1-125 125zM461.93 359c-108.15 0-196.13 88-196.13 196.13V828a75.08 75.08 0 0 0 75 75h338a75.08 75.08 0 0 0 75-75V555.13C753.8 447 665.82 359 557.67 359zM624.37 243H395.23a66.44 66.44 0 0 1-66.36-66.36v-35.28A66.44 66.44 0 0 1 395.23 75h229.14a66.44 66.44 0 0 1 66.36 66.36v35.28A66.44 66.44 0 0 1 624.37 243zM395.23 125a16.38 16.38 0 0 0-16.36 16.36v35.28A16.38 16.38 0 0 0 395.23 193h229.14a16.38 16.38 0 0 0 16.36-16.36v-35.28A16.38 16.38 0 0 0 624.37 125z" fill="#10A38B" p-id="4950"></path><path d="M583.8 335h-148a37 37 0 0 1-37-37v-65a37 37 0 0 1 37-37h148a37 37 0 0 1 37 37v65a37 37 0 0 1-37 37z m-135-50h122v-39h-122z" fill="#10A38B" p-id="4951"></path><path d="M586.8 658.5h-154a25 25 0 1 1 0-50h154a25 25 0 0 1 0 50z" fill="#FFA143" p-id="4952"></path><path d="M509.8 735.5a25 25 0 0 1-25-25v-154a25 25 0 1 1 50 0v154a25 25 0 0 1-25 25z" fill="#FFA143" p-id="4953"></path></svg>