<?xml version="1.0" standalone="no"?><!DOCTYPE svg PUBLIC "-//W3C//DTD SVG 1.1//EN" "http://www.w3.org/Graphics/SVG/1.1/DTD/svg11.dtd"><svg t="1652342378139" class="icon" viewBox="0 0 1024 1024" version="1.1" xmlns="http://www.w3.org/2000/svg" p-id="4803" xmlns:xlink="http://www.w3.org/1999/xlink" width="200" height="200"><defs><style type="text/css"></style></defs><path d="M844.52 511.25h-197.3C576.61 667.37 419.49 776 237 776a450.54 450.54 0 0 1-110.67-13.72v39.06a60 60 0 0 0 60 60h658.19a60.18 60.18 0 0 0 60-60V571.25a60.18 60.18 0 0 0-60-60z" fill="#C9F4EB" p-id="4804"></path><path d="M888 512H138a25 25 0 0 1 0-50h750a25 25 0 0 1 0 50z" fill="#10A38B" p-id="4805"></path><path d="M320 487a25 25 0 0 1-25-25v-38a25 25 0 0 1 50 0v38a25 25 0 0 1-25 25zM717 487a25 25 0 0 1-25-25v-38a25 25 0 0 1 50 0v38a25 25 0 0 1-25 25z" fill="#10A38B" p-id="4806"></path><path d="M583 711H429a25 25 0 0 1 0-50h154a25 25 0 0 1 0 50z" fill="#FFA143" p-id="4807"></path><path d="M506 788a25 25 0 0 1-25-25V609a25 25 0 0 1 50 0v154a25 25 0 0 1-25 25z" fill="#FFA143" p-id="4808"></path><path d="M801.55 894.27H223.36a125.14 125.14 0 0 1-125-125V366.85a125.14 125.14 0 0 1 125-125h578.19a125.15 125.15 0 0 1 125 125v402.42a125.15 125.15 0 0 1-125 125zM223.36 291.85a75.09 75.09 0 0 0-75 75v402.42a75.09 75.09 0 0 0 75 75h578.19a75.09 75.09 0 0 0 75-75V366.85a75.09 75.09 0 0 0-75-75z" fill="#10A38B" p-id="4809"></path><path d="M695 292H329a25 25 0 0 1-25-25v-53a85.1 85.1 0 0 1 85-85h249.5a81.59 81.59 0 0 1 81.5 81.5V267a25 25 0 0 1-25 25z m-341-50h316v-31.5a31.53 31.53 0 0 0-31.5-31.5H389a35 35 0 0 0-35 35z" fill="#10A38B" p-id="4810"></path></svg>