<?xml version="1.0" standalone="no"?><!DOCTYPE svg PUBLIC "-//W3C//DTD SVG 1.1//EN" "http://www.w3.org/Graphics/SVG/1.1/DTD/svg11.dtd"><svg t="1652342424415" class="icon" viewBox="0 0 1024 1024" version="1.1" xmlns="http://www.w3.org/2000/svg" p-id="7660" xmlns:xlink="http://www.w3.org/1999/xlink" width="200" height="200"><defs><style type="text/css"></style></defs><path d="M141 859c-5.55 0-11.08-0.07-16.6-0.18A60.22 60.22 0 0 0 181 899h653a60.18 60.18 0 0 0 60-60V329.77C783 638.34 487.79 859 141 859z" fill="#C9F4EB" p-id="7661"></path><path d="M445.05 922a25 25 0 0 1-25-25V421.22a25 25 0 0 1 50 0V897a25 25 0 0 1-25 25z" fill="#FFA143" p-id="7662"></path><path d="M894 414H167.86a25 25 0 1 1 0-50H894a25 25 0 0 1 0 50z" fill="#10A38B" p-id="7663"></path><path d="M807 922H234a125.14 125.14 0 0 1-125-125V224A125.14 125.14 0 0 1 234 99h573a125.14 125.14 0 0 1 125 125v573a125.14 125.14 0 0 1-125 125zM234 149a75.09 75.09 0 0 0-75 75v573a75.09 75.09 0 0 0 75 75h573a75.09 75.09 0 0 0 75-75V224a75.09 75.09 0 0 0-75-75z" fill="#10A38B" p-id="7664"></path></svg>