<?xml version="1.0" standalone="no"?><!DOCTYPE svg PUBLIC "-//W3C//DTD SVG 1.1//EN" "http://www.w3.org/Graphics/SVG/1.1/DTD/svg11.dtd"><svg t="1652342470738" class="icon" viewBox="0 0 1024 1024" version="1.1" xmlns="http://www.w3.org/2000/svg" p-id="10520" xmlns:xlink="http://www.w3.org/1999/xlink" width="200" height="200"><defs><style type="text/css"></style></defs><path d="M840.4 170.22l-0.84-1a172.52 172.52 0 0 0-124-59.13A497.53 497.53 0 0 1 730 229.5C730 503.71 507.71 726 233.5 726q-13.87 0-27.58-0.76a1193.23 1193.23 0 0 0 52.47 119.33L296.66 920c17.33 34.18 67 31.63 80.72-4.16l4.92-12.83c17.32-38 40.36-99.39 67.94-127.35l19.31-19.57a54.84 54.84 0 0 1 78.08 0l19.3 19.57c27.59 28 50.62 89.33 68 127.35l5.56 14.5c13.63 35.52 62.78 38.38 80.44 4.68l31.9-60.85A1190 1190 0 0 0 887.64 361l2.17-49.46a201.68 201.68 0 0 0-49.41-141.32z" fill="#C9F4EB" p-id="10521"></path><path d="M512.11 335.49c-22.19 0-44.38-4.85-63.74-14.53l-45.94-23a25 25 0 0 1 22.38-44.72l45.94 23c24.35 12.19 58.36 12.19 82.72 0l45.93-23A25 25 0 0 1 621.78 298l-45.94 23c-19.36 9.64-41.55 14.49-63.73 14.49z" fill="#FFA143" p-id="10522"></path><path d="M685.91 958.93c-1.4 0-2.8 0-4.21-0.12a68.47 68.47 0 0 1-60.6-44.3l-5.29-13.8c-3.26-7.18-6.66-15-10.26-23.3-14.84-34.21-33.31-76.78-52.41-96.15l-19.31-19.57a29.83 29.83 0 0 0-42.49 0L472 781.26c-19.11 19.37-37.57 61.94-52.41 96.15-3.6 8.28-7 16.12-10.26 23.3l-4.65 12.13a69.22 69.22 0 0 1-126.36 6.5l-38.22-75.46a1215.11 1215.11 0 0 1-129.53-483.09l-3.21-58.69a225.49 225.49 0 0 1 55.4-161.27A197.28 197.28 0 0 1 401.9 94.75a26 26 0 0 1 3.1 1.87l56.95 40.48a87.53 87.53 0 0 0 101.32 0l57-40.48a26 26 0 0 1 3.08-1.87 197.26 197.26 0 0 1 239.13 46.08l0.84 1a225.69 225.69 0 0 1 55.53 158.79l-2.16 49.46a1217.4 1217.4 0 0 1-40.7 263.06 1216.65 1216.65 0 0 1-97 247.88L747 921.84a68.4 68.4 0 0 1-61.09 37.09zM512.59 702.8a79.26 79.26 0 0 1 56.84 23.77l19.3 19.57c25.67 26 46.2 73.34 62.69 111.37 3.62 8.34 7 16.22 10.21 23.18 0.21 0.46 0.41 0.93 0.59 1.41l5.56 14.49a19.22 19.22 0 0 0 35 2l31.89-60.85a1172.64 1172.64 0 0 0 132-489.91l2.16-49.46a176 176 0 0 0-43.28-123.77l-0.84-1a147.38 147.38 0 0 0-177.08-35.21l-55.41 39.39a137.56 137.56 0 0 1-159.26 0l-55.42-39.4a147.36 147.36 0 0 0-177.07 35.21 175.8 175.8 0 0 0-43.19 125.7l3.21 58.69a1158.17 1158.17 0 0 0 124.2 463.2L323 896.73a19.22 19.22 0 0 0 35.08-1.8L363 882.1c0.18-0.48 0.38-1 0.59-1.41 3.17-7 6.59-14.84 10.21-23.18 16.49-38 37-85.35 62.69-111.37l19.3-19.57a79.26 79.26 0 0 1 56.8-23.77z" fill="#10A38B" p-id="10523"></path></svg>