<?xml version="1.0" standalone="no"?><!DOCTYPE svg PUBLIC "-//W3C//DTD SVG 1.1//EN" "http://www.w3.org/Graphics/SVG/1.1/DTD/svg11.dtd"><svg t="1652342450027" class="icon" viewBox="0 0 1024 1024" version="1.1" xmlns="http://www.w3.org/2000/svg" p-id="9084" xmlns:xlink="http://www.w3.org/1999/xlink" width="200" height="200"><defs><style type="text/css"></style></defs><path d="M567 448.75s21.58-216.9 145.11-311c12.79-9.74 9-29.65-6.75-32.85-78.85-16-230.71-39.53-259.5 9.59 0 0-2.28 3.56-6.22 10.2A448 448 0 0 1 524 387c0 235.45-180.83 428.66-411.18 448.34 12.45 45 46 94.56 133.44 94.56 0 0 84.48-21.25 197.12-185.49 30.49-44.45 76.9-75.09 130.23-82.89 109.6-16 292.65-35.3 365.39 1.07V414.05s-265-18.76-372 34.7z" fill="#C9F4EB" p-id="9085"></path><path d="M233.34 954.9c-53.52 0-95.33-16.63-124.27-49.42C58.64 848.34 68.58 763.72 69 760.15a25 25 0 0 1 13.24-19.06c0.43-0.22 46.59-24.7 93.93-70.54 61.88-59.94 96.65-126.36 103.34-197.42 9.43-100.05 44.88-195.81 73-258.53 29.21-65.27 56.17-108.46 59.16-113.18 18-30.1 61.55-43.56 133.13-41.14 53.2 1.8 112.35 11.93 152.64 20.12a42.43 42.43 0 0 1 33.37 32.38 44.18 44.18 0 0 1-16.43 44.86c-82.16 62.58-116.25 187.73-128.87 252.57 47.55-13.81 112.54-21.81 194.06-23.85 79.9-2 145.53 2.56 148.28 2.76a25 25 0 0 1 23.23 24.93v248.54A25 25 0 0 1 914.9 685c-49.15-24.57-176.94-24.1-350.59 1.31-45.62 6.67-85.83 32.35-113.23 72.29-48.3 70.4-97.64 124.33-146.62 160.3-38 27.93-62.37 34.58-65 35.24a25 25 0 0 1-6.12 0.76zM118 778.25c-0.37 20.86 2.38 64.64 28.74 94.33 18.39 20.72 46.22 31.57 82.75 32.28 6.27-2.33 23.72-9.86 49-29 29.79-22.51 76.76-66 131.32-145.6a223.46 223.46 0 0 1 63.65-62.08 209.64 209.64 0 0 1 83.57-31.4c51.44-7.53 127.76-17 199.31-19.37 61.34-2 109.16 1.24 144.7 10V437.73c-65.81-3-254-7.54-335.79 33.38a25 25 0 0 1-36.06-24.84c0.23-2.32 5.9-57.58 27.27-125.26 12.65-40.05 28.22-76.21 46.29-107.48 20.37-35.26 44-64.44 70.47-86.95-154.79-29.8-210.8-13-218.72 0.55-0.16 0.27-0.32 0.53-0.49 0.79-0.28 0.44-27.43 43.32-56.29 107.94-26.39 59.08-59.68 149-68.44 242-4.36 46.27-19 91.37-43.56 134-19.38 33.67-44.91 65.87-75.9 95.7A527.73 527.73 0 0 1 118 778.25z m315-663.76z" fill="#10A38B" p-id="9086"></path><path d="M483.45 442.84h-1.23l-1.23-0.09c-0.81-0.09-1.62-0.21-2.43-0.37s-1.59-0.36-2.37-0.6-1.55-0.52-2.3-0.83-1.5-0.66-2.22-1-1.42-0.81-2.1-1.26-1.34-0.94-2-1.45c-0.32-0.26-0.63-0.53-0.94-0.81s-0.6-0.56-0.89-0.84-0.57-0.59-0.85-0.9-0.54-0.61-0.8-0.93c-0.51-0.63-1-1.29-1.46-2s-0.87-1.39-1.25-2.11-0.73-1.46-1-2.21a23.34 23.34 0 0 1-0.83-2.3 24.37 24.37 0 0 1-0.6-2.38c-0.16-0.8-0.28-1.61-0.37-2.42q-0.06-0.62-0.09-1.23t0-1.23v-1.23q0-0.62 0.09-1.23c0.09-0.81 0.21-1.63 0.37-2.43s0.36-1.59 0.6-2.37a23.34 23.34 0 0 1 0.83-2.3c0.31-0.75 0.66-1.5 1-2.22s0.8-1.42 1.25-2.1 0.95-1.34 1.46-2c0.26-0.32 0.53-0.63 0.8-0.94s0.56-0.6 0.85-0.89 0.59-0.57 0.89-0.85 0.62-0.54 0.94-0.8c0.63-0.51 1.29-1 2-1.46s1.39-0.87 2.1-1.25 1.47-0.74 2.22-1.05a23.28 23.28 0 0 1 2.3-0.82c0.78-0.24 1.58-0.44 2.37-0.6s1.62-0.29 2.43-0.37l1.23-0.09q1.23-0.06 2.46 0l1.23 0.09c0.81 0.08 1.62 0.21 2.42 0.37a24.37 24.37 0 0 1 2.38 0.6 23.28 23.28 0 0 1 2.3 0.82c0.75 0.31 1.5 0.67 2.21 1.05s1.43 0.8 2.11 1.25 1.34 0.95 2 1.46c0.32 0.26 0.63 0.53 0.93 0.8s0.61 0.56 0.9 0.85 0.57 0.59 0.85 0.89 0.54 0.62 0.8 0.94c0.51 0.63 1 1.29 1.46 2s0.87 1.38 1.25 2.1 0.73 1.47 1 2.22 0.59 1.52 0.83 2.3 0.44 1.58 0.6 2.37 0.28 1.62 0.37 2.43q0.06 0.62 0.09 1.23t0 1.23v1.23q0 0.61-0.09 1.23c-0.09 0.81-0.21 1.62-0.37 2.42a24.37 24.37 0 0 1-0.6 2.38c-0.24 0.78-0.52 1.55-0.83 2.3s-0.66 1.5-1 2.21-0.81 1.43-1.25 2.11-0.95 1.34-1.46 2c-0.26 0.32-0.53 0.63-0.8 0.93s-0.56 0.61-0.85 0.9-0.59 0.57-0.9 0.84-0.61 0.55-0.93 0.81c-0.63 0.51-1.29 1-2 1.45s-1.39 0.88-2.11 1.26-1.46 0.73-2.21 1-1.52 0.59-2.3 0.83a24.37 24.37 0 0 1-2.38 0.6c-0.8 0.16-1.61 0.28-2.42 0.37l-1.23 0.09zM592.45 596.84h-1.23l-1.23-0.09c-0.81-0.09-1.62-0.21-2.43-0.37s-1.59-0.36-2.37-0.6-1.55-0.52-2.3-0.83-1.5-0.66-2.22-1-1.42-0.81-2.1-1.26-1.34-0.94-2-1.45c-0.32-0.26-0.63-0.53-0.94-0.81s-0.6-0.56-0.89-0.84-0.57-0.59-0.85-0.9-0.54-0.61-0.8-0.93c-0.51-0.63-1-1.29-1.46-2s-0.87-1.39-1.25-2.11-0.73-1.46-1-2.21a23.34 23.34 0 0 1-0.83-2.3 24.37 24.37 0 0 1-0.6-2.38c-0.16-0.8-0.28-1.61-0.37-2.42q-0.06-0.62-0.09-1.23t0-1.23v-1.23q0-0.61 0.09-1.23c0.09-0.81 0.21-1.63 0.37-2.43s0.36-1.59 0.6-2.37a23.34 23.34 0 0 1 0.83-2.3c0.31-0.75 0.66-1.5 1-2.22s0.8-1.42 1.25-2.1 1-1.34 1.46-2c0.26-0.32 0.53-0.63 0.8-0.94s0.56-0.6 0.85-0.89 0.59-0.57 0.89-0.85 0.62-0.54 0.94-0.8c0.63-0.51 1.29-1 2-1.46s1.39-0.87 2.1-1.25 1.47-0.74 2.22-1a23.28 23.28 0 0 1 2.3-0.82c0.78-0.24 1.58-0.44 2.37-0.6s1.62-0.29 2.43-0.37q0.62-0.06 1.23-0.09 1.23-0.06 2.46 0 0.62 0 1.23 0.09c0.81 0.08 1.62 0.21 2.42 0.37a24.37 24.37 0 0 1 2.38 0.6 23.28 23.28 0 0 1 2.3 0.82c0.75 0.31 1.5 0.67 2.21 1s1.43 0.8 2.11 1.25 1.34 1 2 1.46c0.32 0.26 0.63 0.53 0.93 0.8s0.61 0.56 0.9 0.85 0.57 0.59 0.85 0.89 0.54 0.62 0.8 0.94c0.51 0.63 1 1.29 1.46 2s0.87 1.38 1.25 2.1 0.73 1.47 1 2.22 0.59 1.52 0.83 2.3 0.44 1.58 0.6 2.37 0.28 1.62 0.37 2.43q0.06 0.61 0.09 1.23t0 1.23v1.23q0 0.62-0.09 1.23c-0.09 0.81-0.21 1.62-0.37 2.42a24.37 24.37 0 0 1-0.6 2.38c-0.24 0.78-0.52 1.55-0.83 2.3s-0.66 1.5-1 2.21-0.81 1.43-1.25 2.11-1 1.34-1.46 2c-0.26 0.32-0.53 0.63-0.8 0.93s-0.56 0.61-0.85 0.9-0.59 0.57-0.9 0.84-0.61 0.55-0.93 0.81c-0.63 0.51-1.29 1-2 1.45s-1.39 0.88-2.11 1.26-1.46 0.73-2.21 1-1.52 0.59-2.3 0.83a24.37 24.37 0 0 1-2.38 0.6c-0.8 0.16-1.61 0.28-2.42 0.37l-1.23 0.09h-1.23zM310.45 726.84h-1.23l-1.23-0.09c-0.81-0.09-1.62-0.21-2.43-0.37s-1.59-0.36-2.37-0.6-1.55-0.52-2.3-0.83-1.5-0.66-2.22-1-1.42-0.81-2.1-1.26-1.34-0.94-2-1.45c-0.32-0.26-0.63-0.53-0.94-0.81s-0.6-0.56-0.89-0.84-0.57-0.59-0.85-0.9-0.54-0.61-0.8-0.93c-0.51-0.63-1-1.29-1.46-2s-0.87-1.39-1.25-2.11-0.73-1.46-1-2.21a23.34 23.34 0 0 1-0.83-2.3 24.37 24.37 0 0 1-0.6-2.38c-0.16-0.8-0.28-1.61-0.37-2.42q-0.06-0.62-0.09-1.23t0-1.23v-1.23q0-0.61 0.09-1.23c0.09-0.81 0.21-1.63 0.37-2.43s0.36-1.59 0.6-2.37a23.34 23.34 0 0 1 0.83-2.3c0.31-0.75 0.66-1.5 1-2.22s0.8-1.42 1.25-2.1 0.95-1.34 1.46-2c0.26-0.32 0.53-0.63 0.8-0.94s0.56-0.6 0.85-0.89 0.59-0.57 0.89-0.85 0.62-0.54 0.94-0.8c0.63-0.51 1.29-1 2-1.46s1.39-0.87 2.1-1.25 1.47-0.74 2.22-1a23.28 23.28 0 0 1 2.3-0.82c0.78-0.24 1.58-0.44 2.37-0.6s1.62-0.29 2.43-0.37q0.61-0.06 1.23-0.09 1.23-0.06 2.46 0 0.61 0 1.23 0.09c0.81 0.08 1.62 0.21 2.42 0.37a24.37 24.37 0 0 1 2.38 0.6 23.28 23.28 0 0 1 2.3 0.82c0.75 0.31 1.5 0.67 2.21 1s1.43 0.8 2.11 1.25 1.34 1 2 1.46c0.32 0.26 0.63 0.53 0.93 0.8s0.61 0.56 0.9 0.85 0.57 0.59 0.85 0.89 0.54 0.62 0.8 0.94c0.51 0.63 1 1.29 1.46 2s0.87 1.38 1.25 2.1 0.73 1.47 1 2.22 0.59 1.52 0.83 2.3 0.44 1.58 0.6 2.37 0.28 1.62 0.37 2.43q0.06 0.61 0.09 1.23t0 1.23v1.23q0 0.62-0.09 1.23c-0.09 0.81-0.21 1.62-0.37 2.42a24.37 24.37 0 0 1-0.6 2.38c-0.24 0.78-0.52 1.55-0.83 2.3s-0.66 1.5-1 2.21-0.81 1.43-1.25 2.11-0.95 1.34-1.46 2c-0.26 0.32-0.53 0.63-0.8 0.93s-0.56 0.61-0.85 0.9-0.59 0.57-0.9 0.84-0.61 0.55-0.93 0.81c-0.63 0.51-1.29 1-2 1.45s-1.39 0.88-2.11 1.26-1.46 0.73-2.21 1-1.52 0.59-2.3 0.83a24.37 24.37 0 0 1-2.38 0.6c-0.8 0.16-1.61 0.28-2.42 0.37l-1.23 0.09h-1.23zM252.45 741.84h-1.23l-1.23-0.09c-0.81-0.09-1.62-0.21-2.43-0.37s-1.59-0.36-2.37-0.6-1.55-0.52-2.3-0.83-1.5-0.66-2.22-1-1.42-0.81-2.1-1.26-1.34-0.94-2-1.45c-0.32-0.26-0.63-0.53-0.94-0.81s-0.6-0.56-0.89-0.84-0.57-0.59-0.85-0.9-0.54-0.61-0.8-0.93c-0.51-0.63-1-1.29-1.46-2s-0.87-1.39-1.25-2.11-0.73-1.46-1-2.21a23.34 23.34 0 0 1-0.83-2.3 24.37 24.37 0 0 1-0.6-2.38c-0.16-0.8-0.28-1.61-0.37-2.42q-0.06-0.62-0.09-1.23t0-1.23v-1.23q0-0.61 0.09-1.23c0.09-0.81 0.21-1.63 0.37-2.43s0.36-1.59 0.6-2.37a23.34 23.34 0 0 1 0.83-2.3c0.31-0.75 0.66-1.5 1-2.22s0.8-1.42 1.25-2.1 1-1.34 1.46-2c0.26-0.32 0.53-0.63 0.8-0.94s0.56-0.6 0.85-0.89 0.59-0.57 0.89-0.85 0.62-0.54 0.94-0.8c0.63-0.51 1.29-1 2-1.46s1.39-0.87 2.1-1.25 1.47-0.74 2.22-1a23.28 23.28 0 0 1 2.3-0.82c0.78-0.24 1.58-0.44 2.37-0.6s1.62-0.29 2.43-0.37q0.62-0.06 1.23-0.09 1.23-0.06 2.46 0 0.62 0 1.23 0.09c0.81 0.08 1.62 0.21 2.42 0.37a24.37 24.37 0 0 1 2.38 0.6 23.28 23.28 0 0 1 2.3 0.82c0.75 0.31 1.5 0.67 2.21 1s1.43 0.8 2.11 1.25 1.34 1 2 1.46c0.32 0.26 0.63 0.53 0.93 0.8s0.61 0.56 0.9 0.85 0.57 0.59 0.85 0.89 0.54 0.62 0.8 0.94c0.51 0.63 1 1.29 1.46 2s0.87 1.38 1.25 2.1 0.73 1.47 1 2.22 0.59 1.52 0.83 2.3 0.44 1.58 0.6 2.37 0.28 1.62 0.37 2.43q0.06 0.61 0.09 1.23t0 1.23v1.23q0 0.62-0.09 1.23c-0.09 0.81-0.21 1.62-0.37 2.42a24.37 24.37 0 0 1-0.6 2.38c-0.24 0.78-0.52 1.55-0.83 2.3s-0.66 1.5-1 2.21-0.81 1.43-1.25 2.11-0.95 1.34-1.46 2c-0.26 0.32-0.53 0.63-0.8 0.93s-0.56 0.61-0.85 0.9-0.59 0.57-0.9 0.84-0.61 0.55-0.93 0.81c-0.63 0.51-1.29 1-2 1.45s-1.39 0.88-2.11 1.26-1.46 0.73-2.21 1-1.52 0.59-2.3 0.83a24.37 24.37 0 0 1-2.38 0.6c-0.8 0.16-1.61 0.28-2.42 0.37l-1.23 0.09h-1.23zM483.45 289.22h-1.23l-1.22-0.12a25.479 25.479 0 0 1-7.1-1.79c-0.75-0.31-1.5-0.67-2.22-1.05s-1.42-0.8-2.1-1.25-1.34-0.95-2-1.46c-0.32-0.26-0.63-0.53-0.94-0.8s-0.6-0.56-0.89-0.85-0.57-0.59-0.85-0.89-0.54-0.62-0.8-0.94c-0.51-0.63-1-1.29-1.46-2s-0.87-1.39-1.25-2.11-0.73-1.46-1-2.21a23.34 23.34 0 0 1-0.83-2.3c-0.24-0.78-0.44-1.58-0.6-2.37s-0.28-1.62-0.37-2.43q-0.06-0.62-0.09-1.23t0-1.23v-1.23q0-0.61 0.09-1.23c0.09-0.81 0.21-1.62 0.37-2.42a24.66 24.66 0 0 1 1.43-4.68c0.31-0.75 0.66-1.5 1-2.21s0.8-1.43 1.25-2.11 0.95-1.34 1.46-2c0.26-0.32 0.53-0.63 0.8-0.93s0.56-0.61 0.85-0.9 0.59-0.57 0.89-0.85 0.62-0.54 0.94-0.8c0.63-0.51 1.29-1 2-1.46s1.39-0.87 2.1-1.25 1.47-0.73 2.22-1a23.34 23.34 0 0 1 2.3-0.83c0.78-0.24 1.58-0.44 2.37-0.6s1.62-0.28 2.43-0.37l1.23-0.09q1.23-0.06 2.46 0l1.23 0.09c0.81 0.09 1.62 0.21 2.42 0.37a24.37 24.37 0 0 1 2.38 0.6 23.34 23.34 0 0 1 2.3 0.83c0.75 0.31 1.5 0.66 2.21 1s1.43 0.81 2.11 1.25 1.34 0.95 2 1.46c0.32 0.26 0.63 0.53 0.93 0.8s0.61 0.56 0.9 0.85 0.57 0.59 0.85 0.9 0.54 0.61 0.8 0.93c0.51 0.63 1 1.29 1.46 2s0.87 1.39 1.25 2.11 0.73 1.46 1 2.21 0.59 1.53 0.83 2.3a24.37 24.37 0 0 1 0.6 2.38c0.16 0.8 0.28 1.61 0.37 2.42q0.06 0.62 0.09 1.23t0 1.23v1.23q0 0.62-0.09 1.23c-0.09 0.81-0.21 1.62-0.37 2.43s-0.36 1.59-0.6 2.37-0.52 1.55-0.83 2.3-0.66 1.5-1 2.21-0.81 1.43-1.25 2.11-0.95 1.34-1.46 2c-0.26 0.32-0.53 0.63-0.8 0.94s-0.56 0.6-0.85 0.89-0.59 0.57-0.9 0.85-0.61 0.54-0.93 0.8c-0.63 0.51-1.29 1-2 1.46s-1.39 0.87-2.11 1.25-1.46 0.73-2.21 1.05-1.52 0.58-2.3 0.82a24.37 24.37 0 0 1-2.38 0.6c-0.8 0.16-1.61 0.29-2.42 0.37l-1.23 0.09zM794.45 536.22h-1.23l-1.22-0.12a25.479 25.479 0 0 1-7.1-1.79c-0.75-0.31-1.5-0.67-2.22-1s-1.42-0.8-2.1-1.25-1.34-1-2-1.46c-0.32-0.26-0.63-0.53-0.94-0.8s-0.6-0.56-0.89-0.85-0.57-0.59-0.85-0.89-0.54-0.62-0.8-0.94c-0.51-0.63-1-1.29-1.46-2s-0.87-1.39-1.25-2.11-0.73-1.46-1-2.21a23.34 23.34 0 0 1-0.83-2.3c-0.24-0.78-0.44-1.58-0.6-2.37s-0.28-1.62-0.37-2.43q-0.06-0.61-0.09-1.23t0-1.23v-1.23q0-0.61 0.09-1.23c0.09-0.81 0.21-1.62 0.37-2.42a24.66 24.66 0 0 1 1.43-4.68c0.31-0.75 0.66-1.5 1-2.21s0.8-1.43 1.25-2.11 1-1.34 1.46-2c0.26-0.32 0.53-0.63 0.8-0.93s0.56-0.61 0.85-0.9 0.59-0.57 0.89-0.85 0.62-0.54 0.94-0.8c0.63-0.51 1.29-1 2-1.46s1.39-0.87 2.1-1.25 1.47-0.73 2.22-1a23.34 23.34 0 0 1 2.3-0.83c0.78-0.24 1.58-0.44 2.37-0.6s1.62-0.28 2.43-0.37l1.23-0.09q1.23-0.06 2.46 0l1.23 0.09c0.81 0.09 1.62 0.21 2.42 0.37a24.37 24.37 0 0 1 2.38 0.6 23.34 23.34 0 0 1 2.3 0.83c0.75 0.31 1.5 0.66 2.21 1s1.43 0.81 2.11 1.25 1.34 0.95 2 1.46c0.32 0.26 0.63 0.53 0.93 0.8s0.61 0.56 0.9 0.85 0.57 0.59 0.85 0.9 0.54 0.61 0.8 0.93c0.51 0.63 1 1.29 1.46 2s0.87 1.39 1.25 2.11 0.73 1.46 1 2.21 0.59 1.53 0.83 2.3a24.37 24.37 0 0 1 0.6 2.38c0.16 0.8 0.28 1.61 0.37 2.42q0.06 0.62 0.09 1.23t0 1.23v1.23q0 0.62-0.09 1.23c-0.09 0.81-0.21 1.62-0.37 2.43s-0.36 1.59-0.6 2.37-0.52 1.55-0.83 2.3-0.66 1.5-1 2.21-0.81 1.43-1.25 2.11-1 1.34-1.46 2c-0.26 0.32-0.53 0.63-0.8 0.94s-0.56 0.6-0.85 0.89-0.59 0.57-0.9 0.85-0.61 0.54-0.93 0.8c-0.63 0.51-1.29 1-2 1.46s-1.39 0.87-2.11 1.25-1.46 0.73-2.21 1-1.52 0.58-2.3 0.82a24.37 24.37 0 0 1-2.38 0.6c-0.8 0.16-1.61 0.29-2.42 0.37l-1.23 0.09z" fill="#10A38B" p-id="9087"></path><path d="M435 377m-25 0a25 25 0 1 0 50 0 25 25 0 1 0-50 0Z" fill="#FFA143" p-id="9088"></path><path d="M703 482m-25 0a25 25 0 1 0 50 0 25 25 0 1 0-50 0Z" fill="#FFA143" p-id="9089"></path><path d="M385 585m-25 0a25 25 0 1 0 50 0 25 25 0 1 0-50 0Z" fill="#FFA143" p-id="9090"></path></svg>