<?xml version="1.0" standalone="no"?><!DOCTYPE svg PUBLIC "-//W3C//DTD SVG 1.1//EN" "http://www.w3.org/Graphics/SVG/1.1/DTD/svg11.dtd"><svg t="1652342387322" class="icon" viewBox="0 0 1024 1024" version="1.1" xmlns="http://www.w3.org/2000/svg" p-id="5377" xmlns:xlink="http://www.w3.org/1999/xlink" width="200" height="200"><defs><style type="text/css"></style></defs><path d="M743.87 363c-8.64 218.91-173.58 397.6-386.28 427.57q11.25 13.44 23.74 25.94A400.94 400.94 0 0 0 665 934c69.58 0 118-54.4 118-115.29v-333A211.67 211.67 0 0 0 743.87 363z" fill="#C9F4EB" p-id="5378"></path><path d="M679.66 953a425.95 425.95 0 0 1-425.93-426.24v-380.5a48.65 48.65 0 0 1 48.6-48.6h94.41a48.26 48.26 0 0 1 34.32 14.21 49 49 0 0 1 14.25 34.39v50.33a46 46 0 0 0 45.8 45.79h94.3a237.61 237.61 0 0 1 237.37 237.29v333a139.2 139.2 0 0 1-40 98C756 938 719.42 953 679.79 953zM303.73 147.66v379.12A375.94 375.94 0 0 0 679.67 903h0.12c58.21 0 93-45.91 93-90.29v-333c-0.14-103.14-84.19-187.19-187.36-187.33h-94.37a96 96 0 0 1-95.75-95.76v-49z m93 0z" fill="#10A38B" p-id="5379"></path><path d="M648.29 220.92c-0.73 0-1.46 0-2.19-0.1-7-0.61-14-0.92-20.88-0.92h-92.29a48.12 48.12 0 0 1-48.06-48.07v-49.19a48.12 48.12 0 0 1 48.06-48.07h92.32a48.07 48.07 0 0 1 48 48.07v73.28a25 25 0 0 1-25 25z m-113.42-51h88.41v-45.35h-88.41z m90.34-45.33z" fill="#10A38B" p-id="5380"></path><path d="M633.39 724.33a25 25 0 0 1-25-25V551.65a72.42 72.42 0 0 0-72.34-72.34H497.8a25 25 0 0 1 0-50h38.25a122.48 122.48 0 0 1 122.34 122.34v147.68a25 25 0 0 1-25 25z" fill="#FFA143" p-id="5381"></path><path d="M539 667.16a25 25 0 0 1-17-43.33l88.06-81.67a25 25 0 1 1 34 36.66l-88 81.67a25 25 0 0 1-17.06 6.67z" fill="#FFA143" p-id="5382"></path><path d="M389.91 601.82a25 25 0 0 1-25-25v-25.17a72.42 72.42 0 0 0-72.34-72.34h-60.19a25 25 0 0 1 0-50h60.19a122.48 122.48 0 0 1 122.34 122.34v25.17a25 25 0 0 1-25 25z" fill="#10A38B" p-id="5383"></path><path d="M497.8 585.49a25 25 0 0 1-25-24.89l-0.51-115.45a72.49 72.49 0 0 0-72.34-72H187a25 25 0 0 1 0-50h213a122.33 122.33 0 0 1 122.34 121.8l0.51 115.45a25 25 0 0 1-24.89 25.11z" fill="#10A38B" p-id="5384"></path></svg>