<?xml version="1.0" standalone="no"?><!DOCTYPE svg PUBLIC "-//W3C//DTD SVG 1.1//EN" "http://www.w3.org/Graphics/SVG/1.1/DTD/svg11.dtd"><svg t="1652342411442" class="icon" viewBox="0 0 1024 1024" version="1.1" xmlns="http://www.w3.org/2000/svg" p-id="6808" xmlns:xlink="http://www.w3.org/1999/xlink" width="200" height="200"><defs><style type="text/css"></style></defs><path d="M643.77 299.34q0.21 6.86 0.22 13.76C644 546.28 466.63 738 239.46 760.83a12 12 0 0 0 11.36 8.17H732a12 12 0 0 0 12-12V500.45c0-81.82-39.44-154.87-100.23-201.11z" fill="#C9F4EB" p-id="6809"></path><path d="M512 197.72a25 25 0 0 1-25-25V102a25 25 0 0 1 50 0v70.72a25 25 0 0 1-25 25zM731.26 262A25 25 0 0 1 712 221l53-63.75a25 25 0 0 1 38.47 31.94l-53 63.76a25 25 0 0 1-19.21 9.05zM292.74 262a25 25 0 0 1-19.25-9l-53-63.76a25 25 0 0 1 38.51-32L312 221a25 25 0 0 1-19.22 41zM762.58 806.25H281.4a37 37 0 0 1-37-37V512.69c0-73.86 29-143.5 81.52-196.07S448.13 235.1 522 235.1s143.51 29 196.07 81.52 81.52 122.21 81.52 196.07v256.56a37 37 0 0 1-37.01 37z m-468.18-50h455.18V512.69C749.58 387.2 647.49 285.1 522 285.1S294.4 387.2 294.4 512.69z" fill="#10A38B" p-id="6810"></path><path d="M779.63 952H257.19A85 85 0 0 1 183 825.58l30.95-55.47a25 25 0 0 1 21.83-12.81h564.1a25 25 0 0 1 21.62 12.46l31.66 54.61A85 85 0 0 1 779.63 952zM250.42 807.3l-23.8 42.7a35 35 0 0 0 30.57 52h522.44a35 35 0 0 0 30.28-52.55l-24.44-42.15z" fill="#10A38B" p-id="6811"></path><path d="M671.39 578.68a25 25 0 0 1-25-25v-24.82a118.6 118.6 0 0 0-2.33-23.77c-13-63.34-40.6-102-82-114.89a54.07 54.07 0 0 0-16.06-2.39h-17.18a25 25 0 0 1 0-50H546a103.79 103.79 0 0 1 30.9 4.65 145.83 145.83 0 0 1 68.5 45.41c22.45 26.3 38.49 62.36 47.69 107.18a169.08 169.08 0 0 1 3.35 33.81v24.82a25 25 0 0 1-25.05 25z" fill="#FFA143" p-id="6812"></path></svg>